{"glyphs":{"0":{"ha":800,"x_min":0,"x_max":0,"o":"m 401 986 b 42 486 189 986 42 768 b 401 -14 42 204 189 -14 b 758 486 614 -14 758 204 b 401 986 758 768 613 986 z m 401 13 b 179 486 214 13 179 356 b 401 961 179 617 214 961 b 622 486 588 961 622 617 b 401 13 622 356 588 13 z "},"1":{"ha":458,"x_min":0,"x_max":0,"o":"m 301 25 l 301 972 l 271 972 b 42 840 207 938 111 879 l 42 815 b 158 708 172 881 158 838 l 158 25 l 42 25 l 42 0 l 417 0 l 417 25 z "},"2":{"ha":728,"x_min":0,"x_max":0,"o":"m 675 299 b 354 124 608 121 521 124 l 174 124 b 643 729 456 363 643 543 b 349 986 643 897 538 986 b 258 972 321 986 294 982 l 139 972 l 50 719 l 75 719 b 339 961 135 879 204 961 b 494 749 446 961 494 879 b 28 25 494 506 324 281 l 28 0 l 601 0 l 700 299 z "},"3":{"ha":797,"x_min":0,"x_max":0,"o":"m 367 538 b 674 799 482 575 674 640 b 415 986 674 915 575 986 b 318 972 378 986 354 982 l 199 972 l 110 719 l 133 719 b 408 961 193 879 274 961 b 539 797 507 961 539 882 b 288 522 539 676 456 582 l 288 499 b 633 282 538 572 633 413 b 396 11 633 164 561 11 b 51 299 261 11 121 107 l 28 299 l 133 0 l 260 0 b 396 -14 303 -6 354 -14 b 769 289 597 -14 769 100 b 367 538 769 479 578 593 z "},"4":{"ha":740,"x_min":0,"x_max":0,"o":"m 713 263 l 713 286 l 543 286 l 543 972 l 435 972 b 0 286 243 585 0 286 l 0 263 l 401 263 l 401 25 l 285 25 l 285 0 l 660 0 l 660 25 l 543 25 l 543 263 z m 401 286 l 35 286 b 401 854 35 286 249 558 z "},"5":{"ha":751,"x_min":0,"x_max":0,"o":"m 143 533 l 179 850 l 638 850 l 688 1032 l 663 1032 b 525 972 638 972 613 972 l 169 972 l 113 503 l 129 490 b 588 300 285 640 588 651 b 350 11 588 182 515 11 b 51 299 215 11 121 107 l 28 299 l 132 0 l 242 0 b 350 -14 285 -8 310 -14 b 724 307 553 -14 724 118 b 143 533 724 631 332 690 z "},"6":{"ha":744,"x_min":0,"x_max":0,"o":"m 394 617 b 178 436 242 617 178 436 b 403 961 199 735 238 961 b 642 718 511 961 582 879 l 667 718 l 576 972 l 485 972 b 394 986 451 985 415 986 b 42 396 239 986 42 831 b 385 -14 42 92 221 -14 b 703 306 565 -14 703 118 b 394 617 703 500 565 617 z m 385 11 b 188 306 258 15 188 143 b 394 592 188 482 299 592 b 565 306 508 592 565 472 b 385 11 565 147 507 11 z "},"7":{"ha":660,"x_min":0,"x_max":0,"o":"m 646 972 l 125 972 l 42 719 l 65 719 b 353 850 128 871 174 850 l 528 850 b 214 0 407 674 211 335 l 349 0 b 646 972 329 586 646 972 z "},"8":{"ha":764,"x_min":0,"x_max":0,"o":"m 458 561 b 675 782 568 590 675 656 b 389 986 675 933 511 986 b 79 739 278 986 79 932 b 269 464 79 617 154 538 b 42 225 204 440 42 386 b 372 -14 42 44 233 -14 b 722 253 488 -14 722 44 b 458 561 722 424 579 503 z m 199 800 b 389 961 199 933 321 961 b 568 789 472 961 568 928 b 435 572 568 628 461 586 b 199 800 381 597 199 650 z m 372 13 b 154 211 250 13 154 99 b 297 451 154 306 203 404 b 596 203 439 386 596 336 b 372 13 596 60 458 13 z "},"9":{"ha":744,"x_min":0,"x_max":0,"o":"m 360 986 b 42 667 179 986 42 854 b 350 356 42 472 179 356 b 565 538 503 356 565 538 b 340 11 546 239 507 11 b 103 254 233 11 163 94 l 78 254 l 168 0 l 260 0 b 350 -14 293 -11 328 -14 b 703 578 506 -14 703 142 b 360 986 703 882 524 986 z m 350 381 b 179 667 236 381 179 500 b 360 961 179 826 238 961 b 557 667 486 958 557 831 b 350 381 557 492 446 381 z "},"B":{"ha":861,"x_min":0,"x_max":0,"o":"m 521 524 b 743 739 658 544 743 604 b 379 972 743 914 597 972 l 42 972 l 42 947 l 158 947 l 158 24 l 42 24 l 42 0 l 433 0 b 833 268 685 0 833 82 b 521 524 833 431 719 507 z m 310 947 l 407 947 b 592 739 593 947 592 786 b 406 532 592 690 592 532 l 310 532 z m 443 24 l 310 24 l 310 508 l 446 508 b 674 268 665 508 674 354 b 443 24 674 181 663 24 z "},"C":{"ha":878,"x_min":0,"x_max":0,"o":"m 825 297 b 500 10 757 106 635 10 b 186 486 246 10 186 325 b 500 961 186 647 246 961 b 801 718 635 961 742 878 l 825 718 l 736 972 l 617 972 b 500 986 581 981 542 986 b 28 486 211 986 28 751 b 500 -14 28 221 211 -14 b 617 0 542 -14 581 -10 l 744 0 l 850 299 z "},"D":{"ha":1006,"x_min":0,"x_max":0,"o":"m 421 972 l 42 972 l 42 947 l 158 947 l 158 24 l 42 24 l 42 0 l 421 0 b 978 486 850 0 978 258 b 421 972 978 715 850 972 z m 421 24 l 310 24 l 310 947 l 421 947 b 818 486 782 947 818 629 b 421 24 818 342 782 24 z "},"E":{"ha":831,"x_min":0,"x_max":0,"o":"m 778 299 b 461 24 711 121 622 24 l 310 24 l 310 490 l 394 490 b 557 319 538 490 550 442 l 582 319 l 582 688 l 557 688 b 394 515 550 564 538 515 l 310 515 l 310 947 l 415 947 b 742 718 576 947 675 896 l 767 718 l 676 972 l 42 972 l 42 947 l 158 947 l 158 24 l 42 24 l 42 0 l 714 0 l 803 299 z "},"F":{"ha":781,"x_min":0,"x_max":0,"o":"m 676 972 l 42 972 l 42 947 l 158 947 l 158 24 l 42 24 l 42 0 l 425 0 l 425 24 l 308 24 l 308 472 l 394 472 b 557 301 538 472 550 424 l 582 301 l 582 669 l 557 669 b 394 497 550 546 538 497 l 308 497 l 308 947 l 415 947 b 742 718 576 947 675 896 l 767 718 z "},"G":{"ha":1039,"x_min":0,"x_max":0,"o":"m 540 467 l 540 442 l 754 442 l 754 203 b 500 10 754 156 735 10 b 188 486 246 10 188 325 b 500 961 188 647 246 961 b 801 718 635 961 742 878 l 826 718 l 736 972 l 618 972 b 500 986 581 981 542 986 b 28 486 211 986 28 751 b 500 -14 28 221 211 -14 b 817 65 668 -14 735 65 b 872 0 861 65 865 25 l 894 0 l 894 442 l 1011 442 l 1011 467 z "},"H":{"ha":1047,"x_min":0,"x_max":0,"o":"m 1006 947 l 1006 972 l 621 972 l 621 947 l 738 947 l 738 511 l 310 511 l 310 947 l 425 947 l 425 972 l 42 972 l 42 947 l 158 947 l 158 24 l 42 24 l 42 0 l 425 0 l 425 24 l 310 24 l 310 486 l 738 486 l 738 24 l 621 24 l 621 0 l 1006 0 l 1006 24 l 889 24 l 889 947 z "},"I":{"ha":468,"x_min":0,"x_max":0,"o":"m 426 947 l 426 972 l 42 972 l 42 947 l 158 947 l 158 24 l 42 24 l 42 0 l 426 0 l 426 24 l 310 24 l 310 947 z "},"J":{"ha":726,"x_min":0,"x_max":0,"o":"m 300 972 l 300 947 l 417 947 l 417 332 b 253 11 417 126 406 11 b 133 286 154 11 85 108 l 111 299 l 28 61 b 263 -14 28 61 146 -14 b 568 306 451 -14 568 71 l 568 947 l 685 947 l 685 972 z "},"K":{"ha":1028,"x_min":0,"x_max":0,"o":"m 906 24 l 542 632 l 806 947 l 922 947 l 922 972 l 658 972 l 658 947 l 778 947 l 310 389 l 310 947 l 426 947 l 426 972 l 42 972 l 42 947 l 158 947 l 158 24 l 42 24 l 42 0 l 426 0 l 426 24 l 310 24 l 310 354 l 440 510 l 731 24 l 606 24 l 606 0 l 1014 0 l 1014 24 z "},"L":{"ha":831,"x_min":0,"x_max":0,"o":"m 779 299 b 461 24 713 121 622 24 l 310 24 l 310 947 l 426 947 l 426 972 l 42 972 l 42 947 l 158 947 l 158 24 l 42 24 l 42 0 l 714 0 l 803 299 z "},"M":{"ha":1172,"x_min":0,"x_max":0,"o":"m 1131 947 l 1131 972 l 844 972 l 594 199 l 335 972 l 42 972 l 42 947 l 158 947 l 158 24 l 42 24 l 42 0 l 300 0 l 300 24 l 183 24 l 183 947 l 504 -14 l 553 -14 l 864 946 l 864 24 l 747 24 l 747 0 l 1131 0 l 1131 24 l 1014 24 l 1014 947 z "},"N":{"ha":954,"x_min":0,"x_max":0,"o":"m 654 972 l 654 947 l 771 947 l 771 232 l 294 972 l 42 972 l 42 947 l 158 947 l 158 25 l 42 25 l 42 0 l 299 0 l 299 25 l 183 25 l 182 876 l 763 -14 l 796 -14 l 796 947 l 913 947 l 913 972 z "},"O":{"ha":1003,"x_min":0,"x_max":0,"o":"m 501 986 b 28 486 213 986 28 751 b 501 -14 28 221 213 -14 b 975 486 790 -14 975 221 b 501 986 975 751 790 986 z m 501 11 b 188 486 246 11 188 325 b 501 961 188 647 246 961 b 815 486 756 961 815 647 b 501 11 815 325 756 11 z "},"P":{"ha":819,"x_min":0,"x_max":0,"o":"m 407 438 b 792 706 624 438 792 510 b 407 972 792 903 644 972 l 42 972 l 42 947 l 158 947 l 158 25 l 42 25 l 42 0 l 426 0 l 426 25 l 310 25 l 310 438 z m 310 947 l 426 947 b 633 706 631 947 633 781 b 426 463 633 631 611 463 l 310 463 z "},"Q":{"ha":1001,"x_min":0,"x_max":0,"o":"m 1175 -108 b 1001 -196 1176 -114 1111 -196 b 576 -61 864 -196 818 -61 b 442 -81 525 -61 481 -69 l 540 -12 b 974 486 807 8 974 233 b 501 986 974 751 790 986 b 28 486 211 986 28 751 b 497 -14 28 222 210 -11 l 365 -106 b 283 -176 282 -133 268 -162 b 363 -144 300 -192 335 -162 b 492 -114 390 -128 438 -114 b 940 -310 646 -114 789 -310 b 1186 -108 1126 -310 1186 -117 z m 188 486 b 501 961 188 647 246 961 b 814 486 756 961 814 647 b 501 11 814 325 756 11 b 188 486 246 11 188 325 z "},"R":{"ha":993,"x_min":0,"x_max":0,"o":"m 972 43 b 889 11 965 38 942 11 b 803 226 810 11 803 117 b 556 490 803 399 714 463 b 781 725 688 518 781 592 b 419 972 781 901 621 972 l 42 972 l 42 947 l 158 947 l 158 25 l 42 25 l 42 0 l 425 0 l 425 25 l 310 25 l 310 478 l 414 478 b 643 261 632 478 643 378 b 863 -14 643 76 707 -14 b 979 35 936 -14 974 28 z m 310 503 l 310 947 l 421 947 b 622 725 590 947 622 832 b 421 503 622 618 590 503 z "},"S":{"ha":786,"x_min":0,"x_max":0,"o":"m 400 599 b 183 803 231 663 183 726 b 383 961 183 865 240 961 b 676 718 518 961 617 879 l 700 718 l 611 972 l 492 972 b 375 986 456 982 417 986 b 72 747 206 986 72 890 b 342 443 72 607 156 524 b 626 201 508 369 626 338 b 378 11 626 65 529 11 b 53 299 243 11 121 106 l 28 299 l 133 0 l 261 0 b 388 -14 297 -8 346 -14 b 758 264 607 -14 758 100 b 400 599 758 394 688 489 z "},"T":{"ha":951,"x_min":0,"x_max":0,"o":"m 849 972 l 104 972 l 14 718 l 39 718 b 365 947 106 897 204 947 l 400 947 l 400 25 l 283 25 l 283 0 l 668 0 l 668 25 l 551 25 l 551 947 l 586 947 b 914 718 747 947 847 897 l 938 718 z "},"U":{"ha":993,"x_min":0,"x_max":0,"o":"m 693 972 l 693 947 l 810 947 l 810 319 b 526 11 810 121 708 11 b 310 315 365 11 310 108 l 310 947 l 426 947 l 426 972 l 42 972 l 42 947 l 158 947 l 158 307 b 513 -14 158 60 318 -14 b 835 310 701 -14 835 90 l 835 947 l 951 947 l 951 972 z "},"V":{"ha":904,"x_min":0,"x_max":0,"o":"m 649 972 l 649 947 l 765 947 l 524 199 l 272 947 l 389 947 l 389 972 l 14 972 l 14 947 l 113 947 l 433 -14 l 482 -14 l 792 947 l 890 947 l 890 972 z "},"W":{"ha":1438,"x_min":0,"x_max":0,"o":"m 1182 972 l 1182 947 l 1299 947 l 1071 200 l 800 947 l 917 947 l 917 972 l 539 972 l 539 947 l 638 947 l 711 744 l 544 200 l 275 947 l 392 947 l 392 972 l 14 972 l 14 947 l 113 947 l 460 -14 l 507 -14 l 725 704 l 985 -14 l 1032 -14 l 1325 947 l 1424 947 l 1424 972 z "},"X":{"ha":1000,"x_min":0,"x_max":0,"o":"m 865 25 l 536 567 l 772 947 l 879 947 l 879 972 l 619 972 l 619 947 l 744 947 l 524 589 l 311 947 l 436 947 l 436 972 l 28 972 l 28 947 l 135 947 l 418 481 l 138 25 l 31 25 l 31 0 l 292 0 l 292 25 l 165 25 l 431 458 l 689 25 l 564 25 l 564 0 l 972 0 l 972 25 z "},"Y":{"ha":960,"x_min":0,"x_max":0,"o":"m 685 972 l 685 947 l 811 947 l 563 504 l 297 947 l 422 947 l 422 972 l 14 972 l 14 947 l 122 947 l 425 443 l 425 25 l 308 25 l 308 0 l 693 0 l 693 25 l 576 25 l 576 482 l 839 947 l 946 947 l 946 972 z "},"Z":{"ha":817,"x_min":0,"x_max":0,"o":"m 765 299 b 447 25 699 121 608 25 l 217 25 l 733 972 l 128 972 l 39 718 l 63 718 b 390 947 129 897 229 947 l 544 947 l 28 0 l 700 0 l 789 299 z "},"a":{"ha":765,"x_min":0,"x_max":0,"o":"m 639 25 l 639 392 b 344 656 643 594 538 656 b 258 642 314 656 276 647 l 171 642 l 111 475 l 136 475 b 336 631 175 582 246 631 b 497 357 488 631 497 504 l 497 350 b 304 454 468 401 411 454 b 28 219 174 454 28 388 b 304 -14 28 53 174 -14 b 497 90 411 -14 468 39 l 497 0 l 738 0 l 738 25 z m 497 176 b 319 11 497 124 451 11 b 161 219 207 11 161 117 b 319 429 161 324 207 429 b 497 264 451 429 497 317 z "},"b":{"ha":861,"x_min":0,"x_max":0,"o":"m 493 656 b 282 522 381 656 314 590 l 282 972 l 42 972 l 42 947 l 140 947 l 140 25 l 42 25 l 42 0 l 282 0 l 282 119 b 493 -14 314 53 381 -14 b 833 321 686 -14 833 143 b 493 656 833 499 686 656 z m 493 11 b 282 218 346 11 282 138 l 282 425 b 493 631 282 504 346 631 b 688 321 658 631 688 431 b 493 11 688 213 658 11 z "},"c":{"ha":636,"x_min":0,"x_max":0,"o":"m 585 194 b 368 11 539 67 457 11 b 174 321 201 11 174 213 b 367 631 174 431 201 631 b 568 475 457 631 528 582 l 592 475 l 532 642 l 446 642 b 367 656 421 653 393 656 b 28 321 174 656 28 499 b 368 -14 28 143 174 -14 b 446 0 394 -14 422 -8 l 539 0 l 608 194 z "},"d":{"ha":861,"x_min":0,"x_max":0,"o":"m 721 25 l 721 972 l 481 972 l 481 947 l 579 947 l 579 522 b 368 656 546 590 479 656 b 28 321 175 656 28 499 b 368 -14 28 143 175 -14 b 579 119 479 -14 546 53 l 579 0 l 819 0 l 819 25 z m 579 218 b 368 11 579 138 515 11 b 174 321 203 11 174 213 b 368 631 174 431 203 631 b 579 425 515 631 579 504 z "},"e":{"ha":707,"x_min":0,"x_max":0,"o":"m 368 11 b 174 321 203 11 174 213 b 174 347 174 329 174 338 l 679 347 b 368 656 679 514 551 656 b 28 321 175 656 28 499 b 368 -14 28 143 175 -14 b 654 158 551 -14 638 119 l 629 158 b 368 11 617 128 540 11 z m 368 631 b 533 372 492 631 525 483 l 175 372 b 368 631 185 483 225 631 z "},"f":{"ha":526,"x_min":0,"x_max":0,"o":"m 383 986 b 140 667 161 986 140 800 l 140 642 l 42 642 l 42 617 l 140 617 l 140 25 l 42 25 l 42 0 l 381 0 l 381 25 l 282 25 l 282 617 l 488 617 l 488 642 l 281 642 b 383 961 267 775 246 957 b 488 786 450 961 519 915 l 513 776 l 568 933 b 383 986 568 933 474 986 z "},"g":{"ha":731,"x_min":0,"x_max":0,"o":"m 703 656 l 703 750 b 510 617 614 750 535 693 b 354 656 464 642 411 656 b 42 353 181 656 42 519 b 172 106 42 251 93 161 b 51 -11 113 89 51 53 b 333 -147 51 -161 243 -147 b 631 -236 454 -147 631 -132 b 443 -304 631 -297 558 -333 l 431 -326 l 588 -381 b 661 -201 588 -381 661 -299 b 333 -18 661 0 454 -18 b 103 29 214 -18 103 -35 b 197 90 103 57 136 82 b 354 50 244 64 297 50 b 668 353 529 50 668 186 b 528 606 668 458 613 551 b 703 656 557 657 642 656 z m 354 75 b 183 353 206 75 183 268 b 354 631 183 438 206 631 b 526 353 504 631 526 438 b 354 75 526 268 504 75 z "},"h":{"ha":851,"x_min":0,"x_max":0,"o":"m 725 25 l 725 411 b 503 656 725 603 610 656 b 282 497 376 656 313 583 l 282 972 l 42 972 l 42 947 l 140 947 l 140 25 l 42 25 l 42 0 l 381 0 l 381 25 l 282 25 l 282 372 b 475 631 283 453 329 631 b 583 449 578 631 583 526 l 583 25 l 485 25 l 485 0 l 824 0 l 824 25 z "},"i":{"ha":410,"x_min":0,"x_max":0,"o":"m 283 25 l 283 642 l 42 642 l 42 617 l 140 617 l 140 25 l 42 25 l 42 0 l 382 0 l 382 25 z m 211 749 b 294 831 258 749 294 785 b 211 914 294 878 258 914 b 129 831 165 914 129 878 b 211 749 129 785 165 749 z "},"j":{"ha":400,"x_min":0,"x_max":0,"o":"m 107 617 l 206 617 l 206 3 b 86 -319 206 -131 231 -315 b 0 -144 21 -319 -32 -272 l -22 -131 l -83 -285 b 96 -344 -83 -285 -12 -344 b 347 -24 318 -344 347 -157 l 347 642 l 107 642 z m 275 749 b 358 831 321 749 358 785 b 275 914 358 878 321 914 b 192 831 229 914 192 878 b 275 749 192 785 229 749 z "},"k":{"ha":840,"x_min":0,"x_max":0,"o":"m 732 25 l 413 399 l 660 617 l 740 617 l 740 642 l 535 642 l 535 617 l 624 617 l 317 346 l 282 346 l 282 972 l 42 972 l 42 947 l 140 947 l 140 25 l 42 25 l 42 0 l 381 0 l 381 25 l 282 25 l 282 321 l 317 321 l 569 25 l 489 25 l 489 0 l 813 0 l 813 25 z "},"l":{"ha":408,"x_min":0,"x_max":0,"o":"m 282 25 l 282 972 l 42 972 l 42 947 l 140 947 l 140 25 l 42 25 l 42 0 l 381 0 l 381 25 z "},"m":{"ha":1278,"x_min":0,"x_max":0,"o":"m 1150 25 l 1150 411 b 928 656 1150 603 1035 656 b 710 483 794 656 735 575 b 493 656 685 617 586 656 b 282 504 371 656 311 588 l 282 642 l 42 642 l 42 617 l 140 617 l 140 25 l 42 25 l 42 0 l 381 0 l 381 25 l 282 25 l 282 372 b 467 631 283 454 321 631 b 574 449 568 631 574 526 l 574 25 l 485 25 l 485 0 l 806 0 l 806 25 l 717 25 l 717 371 b 901 631 717 451 754 631 b 1008 449 1003 631 1008 526 l 1008 25 l 910 25 l 910 0 l 1250 0 l 1250 25 z "},"n":{"ha":853,"x_min":0,"x_max":0,"o":"m 726 25 l 726 411 b 503 656 726 603 610 656 b 283 497 376 656 313 583 l 283 642 l 42 642 l 42 617 l 140 617 l 140 25 l 42 25 l 42 0 l 382 0 l 382 25 l 283 25 l 283 372 b 476 631 283 453 329 631 b 583 449 578 631 583 526 l 583 25 l 485 25 l 485 0 l 825 0 l 825 25 z "},"o":{"ha":736,"x_min":0,"x_max":0,"o":"m 368 656 b 28 321 175 656 28 499 b 368 -14 28 143 175 -14 b 708 321 561 -14 708 143 b 368 656 708 499 561 656 z m 368 11 b 174 321 203 11 174 213 b 368 631 174 431 203 631 b 563 321 533 631 563 431 b 368 11 563 213 533 11 z "},"p":{"ha":861,"x_min":0,"x_max":0,"o":"m 493 656 b 282 522 382 656 315 590 l 282 642 l 42 642 l 42 618 l 140 618 l 140 -306 l 42 -306 l 42 -331 l 381 -331 l 381 -306 l 282 -306 l 282 119 b 493 -14 315 53 382 -14 b 833 321 686 -14 833 143 b 493 656 833 499 686 656 z m 493 11 b 282 218 346 11 282 138 l 282 425 b 493 631 282 506 346 631 b 688 321 658 631 688 431 b 493 11 688 213 658 11 z "},"q":{"ha":863,"x_min":0,"x_max":0,"o":"m 821 618 l 821 642 l 579 642 l 579 522 b 368 656 547 590 481 656 b 28 321 175 656 28 499 b 368 -14 28 143 175 -14 b 579 119 481 -14 547 53 l 579 -306 l 481 -306 l 481 -331 l 821 -331 l 821 -306 l 722 -306 l 722 618 z m 579 218 b 368 11 579 138 515 11 b 174 321 203 11 174 213 b 368 631 174 431 203 631 b 579 425 515 631 579 506 z "},"r":{"ha":653,"x_min":0,"x_max":0,"o":"m 589 642 l 528 642 b 458 656 503 651 483 656 b 267 438 342 656 286 553 l 267 642 l 42 642 l 42 618 l 140 618 l 140 25 l 42 25 l 42 0 l 381 0 l 381 25 l 282 25 l 282 336 b 449 632 282 442 326 632 b 614 475 539 632 574 582 l 639 475 z "},"s":{"ha":551,"x_min":0,"x_max":0,"o":"m 285 414 b 157 533 190 450 157 479 b 274 632 157 561 178 632 b 469 475 364 632 429 582 l 493 475 l 435 642 l 347 642 b 268 656 324 650 301 656 b 65 486 154 656 65 586 b 246 283 65 403 97 349 b 418 131 357 233 418 194 b 269 11 418 68 371 11 b 51 194 179 11 97 67 l 28 194 l 94 0 l 186 0 b 275 -14 211 -6 249 -14 b 524 172 422 -14 524 64 b 285 414 524 267 476 342 z "},"t":{"ha":514,"x_min":0,"x_max":0,"o":"m 467 194 b 338 11 461 140 429 11 b 254 264 239 11 254 154 l 254 618 l 456 618 l 456 642 l 254 642 l 254 813 l 113 813 l 113 642 l 14 642 l 14 618 l 113 618 l 113 229 b 314 -14 113 47 208 -14 b 486 194 453 -14 478 142 z "},"u":{"ha":824,"x_min":0,"x_max":0,"o":"m 697 25 l 697 642 l 457 642 l 457 618 l 556 618 l 556 271 b 361 11 554 189 508 11 b 254 193 260 11 254 117 l 254 642 l 14 642 l 14 618 l 111 618 l 111 231 b 335 -14 111 39 228 -14 b 556 146 461 -14 525 60 l 556 0 l 796 0 l 796 25 z "},"v":{"ha":701,"x_min":0,"x_max":0,"o":"m 490 642 l 490 618 l 581 618 l 422 167 l 260 618 l 350 618 l 350 642 l 28 642 l 28 618 l 108 618 l 338 -14 l 386 -14 l 607 618 l 688 618 l 688 642 z "},"w":{"ha":1025,"x_min":0,"x_max":0,"o":"m 814 642 l 814 618 l 903 618 l 765 167 l 607 618 l 688 618 l 688 642 l 399 642 l 399 618 l 461 618 l 510 485 l 413 167 l 254 618 l 343 618 l 343 642 l 28 642 l 28 618 l 108 618 l 338 -14 l 385 -14 l 524 444 l 690 -14 l 738 -14 l 929 618 l 1011 618 l 1011 642 z "},"x":{"ha":719,"x_min":0,"x_max":0,"o":"m 625 25 l 418 371 l 571 618 l 651 618 l 651 642 l 454 642 l 454 618 l 544 618 l 406 392 l 271 618 l 351 618 l 351 642 l 28 642 l 28 618 l 108 618 l 304 290 l 142 25 l 61 25 l 61 0 l 258 0 l 258 25 l 168 25 l 317 268 l 463 25 l 382 25 l 382 0 l 706 0 l 706 25 z "},"y":{"ha":732,"x_min":0,"x_max":0,"o":"m 521 642 l 521 618 l 610 618 l 439 167 l 267 618 l 356 618 l 356 642 l 33 642 l 33 618 l 114 618 l 361 -14 l 371 -14 b 365 -28 369 -18 365 -28 b 157 -293 310 -171 256 -293 b 111 -97 85 -293 35 -206 l 86 -68 l -14 -203 b 139 -319 11 -261 60 -319 b 397 -14 283 -319 339 -167 l 638 618 l 718 618 l 718 642 z "},"z":{"ha":579,"x_min":0,"x_max":0,"o":"m 528 194 b 331 25 488 79 431 25 l 196 25 l 532 642 l 101 642 l 46 475 l 69 475 b 274 618 111 590 172 618 l 364 618 l 28 0 l 496 0 l 551 194 z "},",":{"ha":258,"x_min":0,"x_max":0,"o":"m 129 161 b 42 74 81 161 42 122 b 129 -14 42 25 82 -14 b 185 11 164 -14 185 11 b 88 -140 169 -49 146 -92 l 103 -157 b 217 74 182 -94 217 -11 b 129 161 217 122 178 161 z "},".":{"ha":257,"x_min":0,"x_max":0,"o":"m 128 161 b 42 74 81 161 42 122 b 128 -14 42 25 81 -14 b 215 74 176 -14 215 25 b 128 161 215 122 176 161 z "},":":{"ha":258,"x_min":0,"x_max":0,"o":"m 129 482 b 217 569 178 482 217 521 b 129 656 217 617 178 656 b 42 569 81 656 42 617 b 129 482 42 521 81 482 z m 129 161 b 42 74 81 161 42 122 b 129 -14 42 25 81 -14 b 217 74 178 -14 217 25 b 129 161 217 122 178 161 z "},";":{"ha":257,"x_min":0,"x_max":0,"o":"m 129 482 b 215 569 176 482 215 521 b 129 656 215 617 176 656 b 42 569 81 656 42 617 b 129 482 42 521 81 482 z m 129 161 b 42 74 81 161 42 122 b 129 -14 42 25 82 -14 b 183 11 164 -14 183 11 b 88 -140 169 -49 146 -92 l 103 -157 b 215 74 182 -94 215 -11 b 129 161 215 122 176 161 z "},"!":{"ha":258,"x_min":0,"x_max":0,"o":"m 129 161 b 42 74 81 161 42 122 b 129 -14 42 25 81 -14 b 217 74 178 -14 217 25 b 129 161 217 122 178 161 z m 115 267 l 143 267 l 207 886 b 129 972 213 932 176 972 b 51 886 83 972 46 932 z "},"?":{"ha":678,"x_min":0,"x_max":0,"o":"m 322 986 b 232 972 292 986 261 979 l 132 972 l 42 719 l 67 719 b 314 961 126 879 179 961 b 497 767 419 961 497 896 b 306 267 497 524 306 531 l 333 267 b 636 765 333 569 636 549 b 322 986 636 933 511 986 z m 315 161 b 228 74 267 161 228 122 b 315 -14 228 25 267 -14 b 403 74 364 -14 403 25 b 315 161 403 122 364 161 z "},"¡":{"ha":258,"x_min":0,"x_max":0,"o":"m 42 569 b 129 482 42 521 81 482 b 217 569 178 482 217 521 b 129 656 217 617 178 656 b 42 569 81 656 42 617 z m 207 -243 l 143 375 l 115 375 l 51 -243 b 129 -331 46 -290 82 -331 b 207 -243 176 -331 213 -290 z "},"¿":{"ha":676,"x_min":0,"x_max":0,"o":"m 42 -122 b 354 -344 42 -290 165 -344 b 444 -331 386 -344 415 -336 l 544 -331 l 635 -76 l 610 -76 b 363 -319 550 -236 497 -319 b 179 -124 257 -319 179 -254 b 371 375 179 119 371 113 l 343 375 b 42 -122 343 74 42 94 z m 274 569 b 361 482 274 521 313 482 b 449 569 410 482 449 521 b 361 656 449 617 410 656 b 274 569 313 656 274 617 z "},"−":{"ha":567,"x_min":0,"x_max":0,"o":"m 42 499 l 42 474 l 525 474 l 525 499 z "},"+":{"ha":567,"x_min":0,"x_max":0,"o":"m 296 499 l 296 728 l 271 728 l 271 499 l 42 499 l 42 474 l 271 474 l 271 244 l 296 244 l 296 474 l 525 474 l 525 499 z "},"=":{"ha":593,"x_min":0,"x_max":0,"o":"m 42 608 l 42 583 l 551 583 l 551 608 z m 42 364 l 551 364 l 551 389 l 42 389 z "},"×":{"ha":443,"x_min":0,"x_max":0,"o":"m 401 649 l 383 667 l 221 504 l 60 667 l 42 649 l 204 486 l 42 325 l 60 307 l 221 469 l 383 307 l 401 325 l 239 486 z "},"÷":{"ha":567,"x_min":0,"x_max":0,"o":"m 42 499 l 42 474 l 525 474 l 525 499 z m 283 615 b 353 683 321 615 353 646 b 283 753 353 722 321 753 b 214 683 244 753 214 722 b 283 615 214 646 244 615 z m 283 358 b 214 289 244 358 214 328 b 283 219 214 251 244 219 b 353 289 321 219 353 251 b 283 358 353 328 321 358 z "},"≠":{"ha":593,"x_min":0,"x_max":0,"o":"m 551 583 l 551 608 l 436 608 l 511 685 l 494 703 l 401 608 l 42 608 l 42 583 l 376 583 l 181 389 l 42 389 l 42 364 l 157 364 l 82 289 l 97 271 l 192 364 l 551 364 l 551 389 l 217 389 l 411 583 z "},"-":{"ha":549,"x_min":0,"x_max":0,"o":"m 42 499 l 42 474 l 507 474 l 507 499 z "},"–":{"ha":619,"x_min":0,"x_max":0,"o":"m 42 499 l 42 474 l 578 474 l 578 499 z "},"—":{"ha":674,"x_min":0,"x_max":0,"o":"m 42 499 l 42 474 l 632 474 l 632 499 z "},"_":{"ha":549,"x_min":0,"x_max":0,"o":"m 42 -28 l 42 -53 l 507 -53 l 507 -28 z "},"|":{"ha":108,"x_min":0,"x_max":0,"o":"m 42 1053 l 42 -76 l 67 -76 l 67 1053 z "},"¦":{"ha":108,"x_min":0,"x_max":0,"o":"m 42 1053 l 42 617 l 67 617 l 67 1053 z m 42 -76 l 67 -76 l 67 358 l 42 358 z "},"/":{"ha":517,"x_min":0,"x_max":0,"o":"m 449 1053 l 42 -76 l 68 -76 l 475 1053 z "},"\\":{"ha":517,"x_min":0,"x_max":0,"o":"m 68 1053 l 42 1053 l 449 -76 l 475 -76 z "},"⁄":{"ha":517,"x_min":0,"x_max":0,"o":"m 449 1056 l 42 -74 l 68 -74 l 475 1056 z "},"#":{"ha":1301,"x_min":0,"x_max":0,"o":"m 1260 708 l 1260 733 l 950 733 l 1040 1053 l 1014 1053 l 924 733 l 494 733 l 585 1053 l 558 1053 l 468 733 l 131 733 l 131 708 l 461 708 l 338 268 l 42 268 l 42 243 l 331 243 l 240 -76 l 267 -76 l 357 243 l 785 243 l 696 -76 l 722 -76 l 811 243 l 1169 243 l 1169 268 l 819 268 l 943 708 z m 792 268 l 364 268 l 488 708 l 917 708 z "},"„":{"ha":507,"x_min":0,"x_max":0,"o":"m 378 161 b 292 74 331 161 292 122 b 378 -14 292 25 332 -14 b 433 11 414 -14 433 11 b 336 -140 418 -49 394 -92 l 351 -157 b 465 74 431 -94 465 -11 b 378 161 465 122 426 161 z m 129 161 b 42 74 81 161 42 122 b 129 -14 42 25 82 -14 b 185 11 164 -14 185 11 b 88 -140 169 -49 146 -92 l 103 -157 b 217 74 182 -94 217 -11 b 129 161 217 122 178 161 z "},"‘":{"ha":258,"x_min":0,"x_max":0,"o":"m 129 668 b 217 756 178 668 217 707 b 129 843 217 804 176 843 b 74 818 94 843 74 818 b 171 969 89 878 113 921 l 156 986 b 42 756 76 924 42 840 b 129 668 42 707 81 668 z "},"’":{"ha":258,"x_min":0,"x_max":0,"o":"m 129 986 b 42 900 81 986 42 947 b 129 813 42 851 82 813 b 185 838 164 813 185 838 b 88 686 169 778 146 735 l 103 668 b 217 900 182 732 217 815 b 129 986 217 947 178 986 z "},"”":{"ha":507,"x_min":0,"x_max":0,"o":"m 378 986 b 290 900 329 986 290 947 b 378 813 290 851 331 813 b 432 838 413 813 432 838 b 336 686 418 778 394 735 l 351 668 b 465 900 431 732 465 815 b 378 986 465 947 425 986 z m 129 986 b 42 900 81 986 42 947 b 129 813 42 851 82 813 b 183 838 164 813 183 838 b 86 686 169 778 144 735 l 101 668 b 215 900 181 732 215 815 b 129 986 215 947 176 986 z "},"“":{"ha":507,"x_min":0,"x_max":0,"o":"m 129 668 b 217 756 178 668 217 707 b 129 843 217 804 176 843 b 75 818 94 843 75 818 b 171 969 89 878 113 921 l 156 986 b 42 756 76 924 42 840 b 129 668 42 707 82 668 z m 378 668 b 465 756 426 668 465 707 b 378 843 465 804 425 843 b 324 818 343 843 324 818 b 421 969 338 878 363 921 l 406 986 b 292 756 326 924 292 840 b 378 668 292 707 331 668 z "},"…":{"ha":817,"x_min":0,"x_max":0,"o":"m 128 161 b 42 74 81 161 42 122 b 128 -14 42 25 81 -14 b 215 74 176 -14 215 25 b 128 161 215 122 176 161 z m 408 161 b 321 74 360 161 321 122 b 408 -14 321 25 360 -14 b 496 74 457 -14 496 25 b 408 161 496 122 457 161 z m 689 161 b 601 74 640 161 601 122 b 689 -14 601 25 640 -14 b 775 74 736 -14 775 25 b 689 161 775 122 736 161 z "},"[":{"ha":356,"x_min":0,"x_max":0,"o":"m 314 1026 l 314 1051 l 42 1051 l 42 -78 l 314 -78 l 314 -53 l 67 -53 l 67 1026 z "},"]":{"ha":356,"x_min":0,"x_max":0,"o":"m 42 1051 l 42 1026 l 289 1026 l 289 -53 l 42 -53 l 42 -78 l 314 -78 l 314 1051 z "},"%":{"ha":1208,"x_min":0,"x_max":0,"o":"m 917 479 b 667 233 775 479 667 364 b 917 -14 667 101 775 -14 b 1167 233 1058 -14 1167 101 b 917 479 1167 364 1058 479 z m 917 6 b 774 233 794 6 774 153 b 917 461 774 313 794 461 b 1060 233 1038 461 1060 313 b 917 6 1060 153 1038 6 z m 542 740 b 292 986 542 871 433 986 b 42 740 150 986 42 871 b 292 494 42 610 150 494 b 542 740 433 494 542 610 z m 149 740 b 292 968 149 821 171 968 b 435 740 414 968 435 821 b 292 513 435 660 414 513 b 149 740 171 513 149 660 z m 899 986 l 283 -14 l 310 -14 l 925 986 z "},"‰":{"ha":1803,"x_min":0,"x_max":0,"o":"m 917 479 b 667 233 775 479 667 364 b 917 -14 667 101 775 -14 b 1167 233 1058 -14 1167 101 b 917 479 1167 364 1058 479 z m 917 6 b 774 233 794 6 774 153 b 917 461 774 313 794 461 b 1060 233 1038 461 1060 313 b 917 6 1060 153 1038 6 z m 1511 479 b 1261 233 1369 479 1261 364 b 1511 -14 1261 101 1369 -14 b 1761 233 1653 -14 1761 101 b 1511 479 1761 364 1653 479 z m 1511 6 b 1368 233 1390 6 1368 153 b 1511 461 1368 313 1390 461 b 1654 233 1633 461 1654 313 b 1511 6 1654 153 1633 6 z m 542 740 b 292 986 542 871 433 986 b 42 740 150 986 42 871 b 292 494 42 610 150 494 b 542 740 433 494 542 610 z m 149 740 b 292 968 149 821 171 968 b 435 740 414 968 435 821 b 292 513 435 660 414 513 b 149 740 171 513 149 660 z m 899 986 l 283 -14 l 310 -14 l 925 986 z "},"¶":{"ha":783,"x_min":0,"x_max":0,"o":"m 254 914 b 42 701 138 914 42 818 b 254 489 42 583 138 489 l 254 -72 l 279 -72 l 279 889 l 501 889 l 501 -72 l 526 -72 l 526 889 l 742 889 l 742 914 z "},"'":{"ha":172,"x_min":0,"x_max":0,"o":"m 86 986 b 43 928 63 986 39 969 b 86 693 60 760 76 693 b 129 928 96 693 113 760 b 86 986 135 969 110 986 z "},"\"":{"ha":318,"x_min":0,"x_max":0,"o":"m 86 986 b 43 928 63 986 39 969 b 86 693 60 760 76 693 b 129 928 96 693 113 760 b 86 986 135 969 110 986 z m 232 986 b 188 928 208 986 183 969 b 232 693 206 760 222 693 b 275 928 242 693 258 760 b 232 986 279 969 256 986 z "},"†":{"ha":417,"x_min":0,"x_max":0,"o":"m 211 813 l 246 972 l 169 972 l 204 813 l 42 847 l 42 771 l 206 807 b 169 686 194 760 169 686 l 208 260 l 247 686 b 211 807 247 686 222 760 l 375 771 l 375 847 z "},"‡":{"ha":417,"x_min":0,"x_max":0,"o":"m 213 813 l 247 972 l 169 972 l 204 813 l 42 847 l 42 771 l 206 807 l 169 642 l 206 476 l 42 513 l 42 435 l 204 471 l 169 311 l 247 311 l 213 471 l 375 435 l 375 513 l 211 476 l 247 642 l 211 807 l 375 771 l 375 847 z "},"№":{"ha":1474,"x_min":0,"x_max":0,"o":"m 994 415 l 1432 415 l 1432 440 l 994 440 z m 1213 556 b 1432 771 1338 556 1432 657 b 1213 986 1432 886 1338 986 b 994 771 1089 986 994 886 b 1213 556 994 657 1089 556 z m 1213 971 b 1338 771 1319 971 1338 842 b 1213 572 1338 701 1319 572 b 1088 771 1107 572 1088 701 b 1213 971 1088 842 1107 971 z m 654 947 l 771 947 l 771 232 l 294 972 l 42 972 l 42 947 l 158 947 l 158 25 l 42 25 l 42 0 l 299 0 l 299 25 l 183 25 l 183 876 l 763 -14 l 796 -14 l 796 947 l 913 947 l 913 972 l 654 972 z "},"*":{"ha":414,"x_min":0,"x_max":0,"o":"m 369 868 b 308 889 363 889 342 907 b 225 842 267 867 240 851 b 246 935 231 858 238 888 b 207 986 253 971 228 986 b 168 935 186 986 161 971 b 189 842 176 888 183 858 b 106 889 174 851 147 867 b 44 868 72 907 51 889 b 82 815 38 849 44 821 b 176 806 129 810 158 807 b 106 742 163 794 140 775 b 107 678 78 717 89 690 b 168 696 124 665 151 663 b 207 785 189 739 201 767 b 246 696 213 767 225 739 b 307 678 261 663 290 665 b 308 742 325 690 335 717 b 238 806 274 775 251 794 b 332 815 256 807 285 810 b 369 868 369 821 376 849 z "},"~":{"ha":513,"x_min":0,"x_max":0,"o":"m 446 526 b 356 453 438 499 414 453 b 256 500 314 453 286 475 b 161 546 228 522 199 546 b 42 444 104 546 63 510 l 67 436 b 161 518 85 490 117 518 b 239 479 189 518 213 500 b 356 426 269 454 306 426 b 471 518 410 426 453 460 z "},"≈":{"ha":513,"x_min":0,"x_max":0,"o":"m 161 597 b 239 557 189 597 213 578 b 356 504 269 532 306 504 b 471 596 410 504 453 538 l 446 604 b 356 531 438 576 414 531 b 256 578 314 531 286 554 b 161 624 228 600 199 624 b 42 524 104 624 63 588 l 67 515 b 161 597 85 569 117 597 z m 356 374 b 256 421 314 374 286 397 b 161 467 228 443 199 467 b 42 367 104 467 63 431 l 67 358 b 161 440 85 413 117 440 b 239 400 189 440 213 421 b 356 347 269 375 306 347 b 471 439 410 347 453 381 l 446 447 b 356 374 438 419 414 374 z "},"«":{"ha":431,"x_min":0,"x_max":0,"o":"m 222 632 l 206 649 l 42 486 l 206 322 l 222 340 l 76 486 z m 389 632 l 371 649 l 207 486 l 371 322 l 389 340 l 242 486 z "},"»":{"ha":431,"x_min":0,"x_max":0,"o":"m 225 649 l 207 632 l 353 486 l 207 340 l 225 322 l 389 486 z m 60 649 l 42 632 l 188 486 l 42 340 l 60 322 l 222 486 z "},"^":{"ha":411,"x_min":0,"x_max":0,"o":"m 206 972 l 42 808 l 60 790 l 206 936 l 351 790 l 369 808 z "},"(":{"ha":411,"x_min":0,"x_max":0,"o":"m 64 468 b 369 1040 64 768 178 983 l 363 1063 b 42 468 161 1001 42 779 b 363 -126 42 157 161 -65 l 369 -104 b 64 468 178 -47 64 167 z "},")":{"ha":410,"x_min":0,"x_max":0,"o":"m 47 1063 l 42 1040 b 346 468 232 983 346 768 b 42 -104 346 167 232 -47 l 47 -126 b 368 468 249 -65 368 157 b 47 1063 368 779 249 1001 z "},"{":{"ha":358,"x_min":0,"x_max":0,"o":"m 164 -61 b 135 86 139 -42 104 3 b 156 442 190 239 199 378 b 126 468 147 453 138 461 b 156 494 138 474 147 483 b 135 850 199 557 190 697 b 164 997 104 933 139 978 b 304 1013 204 1029 267 1036 l 317 1031 b 150 1014 271 1060 197 1053 b 114 843 100 975 88 913 b 136 507 167 696 176 564 b 83 479 124 489 106 479 l 42 479 l 42 457 l 83 456 b 136 428 106 456 124 447 b 114 93 176 371 167 240 b 150 -79 88 24 100 -39 b 249 -112 178 -101 214 -112 b 317 -94 274 -112 297 -107 l 304 -76 b 164 -61 267 -100 204 -93 z "},"}":{"ha":358,"x_min":0,"x_max":0,"o":"m 275 479 b 222 507 253 479 235 489 b 246 843 182 564 192 696 b 210 1014 271 913 258 975 b 42 1031 161 1053 88 1060 l 54 1013 b 194 997 92 1036 156 1029 b 224 850 219 978 254 933 b 203 494 168 697 160 557 b 232 468 211 483 221 474 b 203 442 221 461 211 453 b 224 86 160 378 168 239 b 194 -61 254 3 219 -42 b 54 -76 156 -93 92 -100 l 42 -94 b 110 -112 61 -107 85 -112 b 210 -79 144 -112 181 -101 b 246 93 258 -39 271 24 b 222 428 192 240 182 371 b 275 456 235 447 253 456 l 317 457 l 317 479 z "},"<":{"ha":490,"x_min":0,"x_max":0,"o":"m 449 650 l 42 499 l 42 474 l 449 321 l 449 346 l 75 486 l 449 625 z "},">":{"ha":490,"x_min":0,"x_max":0,"o":"m 42 650 l 42 625 l 415 486 l 42 346 l 42 321 l 449 474 l 449 499 z "},"≤":{"ha":492,"x_min":0,"x_max":0,"o":"m 42 238 l 450 238 l 450 261 l 42 261 z m 450 650 l 42 499 l 42 474 l 450 321 l 450 346 l 75 486 l 450 625 z "},"≥":{"ha":492,"x_min":0,"x_max":0,"o":"m 42 236 l 450 236 l 450 260 l 42 260 z m 42 649 l 42 624 l 417 485 l 42 344 l 42 319 l 450 472 l 450 497 z "},"±":{"ha":567,"x_min":0,"x_max":0,"o":"m 42 236 l 525 236 l 525 260 l 42 260 z m 296 589 l 296 818 l 271 818 l 271 589 l 42 589 l 42 564 l 271 564 l 271 335 l 296 335 l 296 564 l 525 564 l 525 589 z "},"‚":{"ha":258,"x_min":0,"x_max":0,"o":"m 129 161 b 42 74 81 161 42 122 b 129 -14 42 25 82 -14 b 185 11 164 -14 185 11 b 88 -140 169 -49 146 -92 l 103 -157 b 217 74 182 -94 217 -11 b 129 161 217 122 178 161 z "},"‹":{"ha":264,"x_min":0,"x_max":0,"o":"m 222 632 l 206 649 l 42 486 l 206 322 l 222 340 l 76 486 z "},"›":{"ha":264,"x_min":0,"x_max":0,"o":"m 60 649 l 42 632 l 188 486 l 42 340 l 60 322 l 222 486 z "},"©":{"ha":932,"x_min":0,"x_max":0,"o":"m 486 263 b 338 486 365 263 338 411 b 486 711 338 563 365 711 b 628 596 549 711 600 671 l 639 596 l 597 715 l 542 715 b 486 722 524 719 506 722 b 263 486 350 722 263 611 b 486 251 263 361 350 251 b 542 257 506 251 524 253 l 601 257 l 651 399 l 639 399 b 486 263 607 307 550 263 z m 465 911 b 42 486 232 911 42 721 b 465 63 42 253 232 63 b 890 486 700 63 890 253 b 465 911 890 721 700 911 z m 465 85 b 64 486 244 85 64 265 b 465 889 64 708 244 889 b 868 486 688 889 868 708 b 465 85 868 265 688 85 z "},"®":{"ha":931,"x_min":0,"x_max":0,"o":"m 671 265 b 631 367 633 265 631 315 b 514 492 631 449 588 479 b 619 603 576 504 619 539 b 449 719 619 686 544 719 l 271 719 l 271 707 l 326 707 l 326 272 l 271 272 l 271 261 l 453 261 l 453 272 l 397 272 l 397 486 l 446 486 b 554 383 549 486 554 439 b 658 254 554 297 585 254 b 714 278 693 254 711 274 l 710 281 b 671 265 707 278 696 265 z m 397 497 l 397 707 l 450 707 b 544 603 529 707 544 653 b 450 497 544 553 529 497 z m 465 911 b 42 486 232 911 42 721 b 465 63 42 253 232 63 b 889 486 699 63 889 253 b 465 911 889 721 699 911 z m 465 85 b 64 486 244 85 64 265 b 465 889 64 708 244 889 b 867 486 686 889 867 708 b 465 85 867 265 686 85 z "},"§":{"ha":581,"x_min":0,"x_max":0,"o":"m 411 318 b 539 492 476 344 539 406 b 172 864 539 706 172 685 b 289 961 172 892 193 961 b 483 806 379 961 443 913 l 507 806 l 449 972 l 363 972 b 282 986 338 979 315 986 b 79 817 169 986 79 917 b 169 656 79 742 117 693 b 42 481 104 629 42 568 b 408 110 42 267 408 289 b 292 11 408 81 388 11 b 96 168 201 11 136 60 l 72 168 l 131 0 l 218 0 b 297 -14 242 -6 260 -14 b 500 156 411 -14 500 57 b 411 318 500 231 463 281 z m 394 329 b 121 536 282 401 121 429 b 186 643 121 593 153 629 b 460 438 299 571 460 543 b 394 329 460 379 428 344 z "},"&":{"ha":1119,"x_min":0,"x_max":0,"o":"m 1053 200 b 913 86 1039 149 996 86 b 692 228 851 86 775 119 b 910 618 825 386 910 522 l 674 618 l 674 592 b 669 253 765 592 935 556 b 564 408 638 297 596 360 b 472 561 533 457 503 507 b 704 824 639 650 704 724 b 515 986 704 878 674 986 b 269 763 356 986 269 876 b 326 544 269 650 314 568 b 594 125 -272 231 199 -254 b 856 -14 676 29 756 -14 b 1078 200 981 -14 1058 61 z m 514 961 b 622 846 575 961 622 932 b 449 607 622 760 594 675 b 514 961 308 908 453 961 z m 350 497 b 392 417 364 468 378 442 b 429 351 404 393 417 371 b 479 276 442 332 458 307 b 572 150 501 246 542 193 b 350 497 251 -110 -49 289 z "},"@":{"ha":1178,"x_min":0,"x_max":0,"o":"m 997 667 b 658 781 906 743 792 781 b 219 619 485 781 339 726 b 42 231 101 511 42 382 b 204 -110 42 97 96 -17 b 608 -249 314 -203 454 -249 b 1011 -124 789 -249 938 -175 l 993 -99 b 611 -217 925 -147 772 -217 b 240 -92 476 -217 335 -175 b 81 232 146 -8 81 99 b 256 603 81 375 144 504 b 665 751 365 701 525 751 b 964 656 774 751 872 719 b 1100 372 1054 592 1100 492 b 1021 125 1100 275 1074 193 b 849 22 969 57 899 22 b 774 97 825 22 774 29 b 886 486 774 129 811 254 l 783 486 l 753 396 b 615 513 733 474 688 513 b 407 410 539 513 471 478 b 314 186 344 342 314 267 b 368 40 314 124 332 75 b 503 -14 406 4 450 -14 b 685 147 610 -14 664 89 b 819 -14 668 0 776 -14 b 1044 107 896 -14 983 26 b 1136 375 1106 188 1136 276 b 997 667 1136 494 1090 592 z m 674 167 b 525 21 636 69 588 21 b 453 51 496 21 471 31 b 425 135 435 72 425 100 b 492 358 425 207 447 281 b 639 474 538 435 586 474 b 729 381 711 474 729 411 b 674 167 729 335 710 264 z "},"•":{"ha":326,"x_min":0,"x_max":0,"o":"m 164 443 b 42 321 96 443 42 389 b 164 200 42 254 96 200 b 285 321 231 200 285 254 b 164 443 285 389 231 443 z "},"Æ":{"ha":1329,"x_min":0,"x_max":0,"o":"m 1276 299 b 960 25 1211 121 1121 25 l 808 25 l 808 492 l 893 492 b 1057 321 1036 492 1050 443 l 1082 321 l 1082 688 l 1057 688 b 893 517 1050 564 1036 517 l 808 517 l 808 949 l 914 949 b 1240 719 1075 949 1174 897 l 1265 719 l 1176 972 l 657 972 l 113 25 l 14 25 l 14 0 l 254 0 l 254 25 l 139 25 l 335 368 l 657 368 l 657 25 l 522 25 l 522 0 l 1213 0 l 1301 299 l 1276 299 z m 657 393 l 350 393 l 657 926 l 657 393 z "},"Œ":{"ha":1292,"x_min":0,"x_max":0,"o":"m 1239 299 b 921 25 1172 121 1082 25 l 769 25 l 769 492 l 856 492 b 1018 321 999 492 1011 443 l 1043 321 l 1043 688 l 1018 688 b 856 517 1011 564 999 517 l 769 517 l 769 947 l 876 947 b 1203 719 1038 947 1136 897 l 1228 719 l 1138 972 l 618 972 b 501 986 582 982 543 986 b 28 486 213 986 28 751 b 501 -14 28 221 213 -14 b 618 0 543 -14 582 -8 l 1174 0 l 1264 299 z m 618 39 b 501 11 585 21 546 11 b 188 486 246 11 188 325 b 501 961 188 647 246 961 b 618 935 546 961 585 951 z "},"Đ":{"ha":1006,"x_min":0,"x_max":0,"o":"m 421 972 l 42 972 l 42 947 l 158 947 l 158 499 l 42 499 l 42 474 l 158 474 l 158 25 l 42 25 l 42 0 l 421 0 b 978 486 850 0 978 258 b 421 972 978 715 850 972 z m 421 25 l 310 25 l 310 474 l 569 474 l 569 499 l 310 499 l 310 947 l 421 947 b 818 486 782 947 818 629 b 421 25 818 343 782 25 z "},"Ħ":{"ha":1047,"x_min":0,"x_max":0,"o":"m 1006 947 l 1006 972 l 621 972 l 621 947 l 738 947 l 738 719 l 310 719 l 310 947 l 425 947 l 425 972 l 42 972 l 42 947 l 158 947 l 158 719 l 42 719 l 42 694 l 158 694 l 158 25 l 42 25 l 42 0 l 425 0 l 425 25 l 310 25 l 310 488 l 738 488 l 738 25 l 621 25 l 621 0 l 1006 0 l 1006 25 l 889 25 l 889 694 l 1006 694 l 1006 719 l 889 719 l 889 947 z m 738 513 l 310 513 l 310 694 l 738 694 z "},"Ŧ":{"ha":951,"x_min":0,"x_max":0,"o":"m 847 972 l 103 972 l 14 719 l 39 719 b 365 947 104 897 204 947 l 400 947 l 400 499 l 139 499 l 139 474 l 400 474 l 400 25 l 283 25 l 283 0 l 668 0 l 668 25 l 551 25 l 551 474 l 813 474 l 813 499 l 551 499 l 551 947 l 586 947 b 913 719 747 947 846 897 l 938 719 z "},"Ł":{"ha":831,"x_min":0,"x_max":0,"o":"m 779 299 b 461 25 713 121 622 25 l 310 25 l 310 392 l 575 613 l 560 631 l 310 424 l 310 947 l 426 947 l 426 972 l 42 972 l 42 947 l 158 947 l 158 297 l 42 200 l 58 182 l 158 265 l 158 25 l 42 25 l 42 0 l 714 0 l 804 299 z "},"Ø":{"ha":1003,"x_min":0,"x_max":0,"o":"m 779 897 l 878 1051 l 857 1065 l 758 913 b 501 986 688 958 600 986 b 28 486 213 986 28 751 b 224 75 28 321 100 168 l 125 -79 l 146 -93 l 243 61 b 501 -14 315 14 401 -14 b 974 486 790 -14 974 221 b 779 897 974 651 903 806 z m 188 486 b 501 961 188 647 246 961 b 717 847 600 961 669 914 l 271 149 b 188 486 207 253 188 394 z m 501 11 b 285 126 403 11 333 58 l 732 824 b 814 486 796 719 814 578 b 501 11 814 325 756 11 z "},"Ŋ":{"ha":954,"x_min":0,"x_max":0,"o":"m 656 972 l 656 947 l 771 947 l 771 232 l 296 972 l 42 972 l 42 947 l 158 947 l 158 25 l 42 25 l 42 0 l 300 0 l 300 25 l 183 25 l 183 876 l 763 -14 l 771 -14 b 614 -317 771 -190 722 -317 b 542 -121 532 -317 465 -229 l 517 -92 l 417 -228 b 597 -344 438 -286 518 -344 b 796 -14 736 -344 796 -219 l 796 947 l 913 947 l 913 972 z "},"Þ":{"ha":819,"x_min":0,"x_max":0,"o":"m 406 264 b 792 532 622 264 792 336 b 406 799 792 728 643 799 l 310 799 l 310 947 l 425 947 l 425 972 l 42 972 l 42 947 l 158 947 l 158 25 l 42 25 l 42 0 l 425 0 l 425 25 l 310 25 l 310 264 z m 310 774 l 425 774 b 633 532 629 774 633 607 b 425 289 633 457 610 289 l 310 289 z "},"ß":{"ha":814,"x_min":0,"x_max":0,"o":"m 500 554 b 639 822 500 643 639 693 b 449 986 639 904 594 986 b 157 672 272 986 157 882 l 157 25 l 42 25 l 42 0 l 308 0 l 308 682 b 463 961 308 840 335 961 b 611 822 565 961 611 901 b 413 499 611 686 413 622 b 707 110 413 285 707 289 b 590 11 707 81 686 11 b 396 168 501 11 436 61 l 372 168 l 431 0 l 517 0 b 597 -14 542 -6 569 -14 b 800 156 710 -14 800 57 b 500 554 800 396 500 390 z "},"æ":{"ha":1165,"x_min":0,"x_max":0,"o":"m 843 11 b 631 321 653 11 631 213 b 631 347 631 329 631 338 l 1138 347 b 825 656 1138 514 1008 656 b 593 561 732 656 651 619 b 346 656 547 631 469 656 b 260 642 321 656 283 651 l 172 642 l 113 475 l 136 475 b 338 631 176 582 247 631 b 497 357 489 631 497 504 l 497 357 b 497 356 497 357 497 356 b 304 454 467 406 408 454 b 28 219 175 454 28 388 b 304 -14 28 53 175 -14 b 531 167 436 -14 506 81 b 843 -14 581 61 688 -14 b 1121 158 1026 -14 1103 119 l 1096 158 b 843 11 1082 128 1015 11 z m 825 631 b 990 372 949 631 983 483 l 632 372 b 825 631 642 483 683 631 z m 319 11 b 163 219 208 11 163 117 b 319 428 163 324 208 428 b 497 300 426 428 479 357 b 514 207 499 268 504 236 b 319 11 504 115 446 11 z "},"œ":{"ha":1242,"x_min":0,"x_max":0,"o":"m 919 11 b 707 321 731 11 707 213 b 708 347 707 329 708 338 l 1214 347 b 901 656 1214 514 1086 656 b 635 528 792 656 696 604 b 367 656 574 604 478 656 b 28 321 174 656 28 499 b 367 -14 28 143 174 -14 b 633 114 476 -14 572 38 b 919 -14 694 38 792 -14 b 1197 158 1103 -14 1181 119 l 1174 158 b 919 11 1160 128 1092 11 z m 901 631 b 1068 372 1025 631 1060 483 l 710 372 b 901 631 718 483 760 631 z m 367 11 b 172 321 201 11 172 213 b 367 631 172 431 201 631 b 561 321 532 631 561 431 b 367 11 561 213 532 11 z "},"đ":{"ha":861,"x_min":0,"x_max":0,"o":"m 821 789 l 821 814 l 722 814 l 722 972 l 481 972 l 481 947 l 579 947 l 579 814 l 392 814 l 392 789 l 579 789 l 579 522 b 368 656 547 590 481 656 b 28 321 175 656 28 499 b 368 -14 28 143 175 -14 b 579 119 481 -14 547 53 l 579 0 l 821 0 l 821 25 l 722 25 l 722 789 z m 579 218 b 368 11 579 138 517 11 b 174 321 203 11 174 213 b 368 631 174 431 203 631 b 579 425 517 631 579 504 z "},"ħ":{"ha":851,"x_min":0,"x_max":0,"o":"m 726 25 l 726 411 b 503 656 726 603 610 656 b 282 497 376 656 313 583 l 282 789 l 471 789 l 471 814 l 282 814 l 282 972 l 42 972 l 42 947 l 140 947 l 140 814 l 42 814 l 42 789 l 140 789 l 140 25 l 42 25 l 42 0 l 381 0 l 381 25 l 282 25 l 282 372 b 476 631 283 453 329 631 b 583 449 578 631 583 526 l 583 25 l 485 25 l 485 0 l 825 0 l 825 25 z "},"ł":{"ha":428,"x_min":0,"x_max":0,"o":"m 283 526 l 400 624 l 385 643 l 283 558 l 283 972 l 43 972 l 43 947 l 140 947 l 140 440 l 35 351 l 50 332 l 140 408 l 140 25 l 43 25 l 43 0 l 382 0 l 382 25 l 283 25 z "},"ŧ":{"ha":514,"x_min":0,"x_max":0,"o":"m 467 194 b 338 11 461 140 429 11 b 254 264 239 11 254 154 l 254 419 l 456 419 l 456 443 l 254 443 l 254 617 l 456 617 l 456 642 l 254 642 l 254 811 l 113 811 l 113 642 l 14 642 l 14 617 l 113 617 l 113 443 l 14 443 l 14 419 l 113 419 l 113 229 b 314 -14 113 47 208 -14 b 486 194 453 -14 478 142 z "},"ø":{"ha":736,"x_min":0,"x_max":0,"o":"m 561 597 l 628 700 l 607 714 l 540 610 b 368 656 490 639 432 656 b 28 321 175 656 28 499 b 175 46 28 210 85 107 l 108 -58 l 129 -71 l 196 32 b 368 -14 246 4 304 -14 b 708 321 561 -14 708 143 b 561 597 708 432 651 535 z m 174 321 b 368 631 174 431 203 631 b 506 557 432 631 476 600 l 217 110 b 174 321 182 176 174 263 z m 368 11 b 231 86 304 11 260 42 l 519 533 b 563 321 554 467 563 381 b 368 11 563 213 533 11 z "},"ŋ":{"ha":767,"x_min":0,"x_max":0,"o":"m 503 656 b 282 497 376 656 313 583 l 282 642 l 42 642 l 42 617 l 140 617 l 140 25 l 42 25 l 42 0 l 381 0 l 381 25 l 282 25 l 282 372 b 475 631 283 453 329 631 b 583 449 578 631 583 526 l 583 3 b 464 -319 583 -131 608 -315 b 378 -144 399 -319 346 -272 l 354 -131 l 294 -285 b 474 -344 294 -285 365 -344 b 725 -24 696 -344 725 -157 l 725 411 b 503 656 725 603 610 656 z "},"ð":{"ha":731,"x_min":0,"x_max":0,"o":"m 474 868 l 619 951 l 607 972 l 451 885 b 211 986 356 953 256 981 l 206 961 b 403 856 261 950 336 921 l 207 744 l 219 722 l 421 838 b 553 436 494 757 553 631 b 336 617 553 436 489 617 b 28 306 165 617 28 500 b 346 -14 28 118 165 -14 b 689 396 510 -14 689 90 b 474 868 689 633 586 779 z m 346 11 b 165 306 228 11 165 147 b 336 592 165 472 222 592 b 543 306 440 592 543 471 b 346 11 543 143 472 15 z "},"£":{"ha":831,"x_min":0,"x_max":0,"o":"m 764 299 b 444 124 697 121 611 124 l 242 124 b 342 517 378 265 372 390 l 636 517 l 636 542 l 335 542 b 283 775 315 617 289 693 b 439 961 272 906 333 961 b 703 719 574 961 643 879 l 728 719 l 639 972 l 519 972 b 429 986 483 982 457 986 b 135 693 242 986 114 864 b 171 542 142 639 156 589 l 42 542 l 42 517 l 179 517 b 81 0 240 343 310 206 l 690 0 l 789 299 z "},"€":{"ha":1065,"x_min":0,"x_max":0,"o":"m 999 299 b 672 11 929 107 808 11 b 364 400 458 11 383 233 l 725 400 l 725 425 l 363 425 b 360 486 360 447 360 468 b 363 549 360 506 360 526 l 753 549 l 753 572 l 364 572 b 672 961 383 739 458 961 b 974 719 807 961 914 879 l 999 719 l 908 972 l 790 972 b 672 986 753 982 714 986 b 207 572 415 986 242 801 l 42 572 l 42 549 l 203 549 b 200 486 201 528 200 507 b 203 425 200 465 201 446 l 42 425 l 42 400 l 207 400 b 672 -14 242 172 415 -14 b 790 0 714 -14 753 -8 l 918 0 l 1024 299 z "},"$":{"ha":814,"x_min":0,"x_max":0,"o":"m 419 596 l 419 961 b 535 926 461 958 500 947 b 554 914 540 924 547 919 b 639 824 586 892 614 863 b 690 719 658 794 675 758 l 715 719 l 625 972 l 507 972 b 419 986 479 979 450 983 l 419 1121 l 394 1121 l 394 986 b 390 986 393 986 392 986 b 88 747 221 986 88 890 b 200 529 88 654 122 588 b 236 504 211 521 224 513 b 307 465 257 492 281 478 b 357 443 322 458 339 450 b 394 426 369 438 382 432 l 394 11 b 393 11 394 11 393 11 b 67 299 258 11 136 107 l 42 299 l 147 0 l 275 0 b 297 -4 282 -1 290 -3 b 394 -14 328 -10 363 -12 l 394 -149 l 419 -149 l 419 -14 b 657 56 515 -11 596 14 b 772 264 729 104 772 178 b 419 596 772 394 703 488 z m 394 606 b 310 647 361 619 333 633 b 289 658 303 651 296 654 b 197 803 221 704 197 750 b 219 874 197 824 204 850 b 228 888 222 878 225 882 b 394 961 258 926 313 961 z m 574 56 b 557 44 568 51 563 49 b 419 13 521 25 474 15 l 419 415 b 519 369 457 400 490 385 b 561 346 535 363 549 354 b 642 201 611 311 642 269 b 574 56 642 133 617 86 z "},"¥":{"ha":1014,"x_min":0,"x_max":0,"o":"m 713 972 l 713 947 l 838 947 l 589 504 l 324 947 l 450 947 l 450 972 l 42 972 l 42 947 l 149 947 l 428 482 l 267 482 l 267 457 l 443 457 l 451 443 l 451 343 l 267 343 l 267 318 l 451 318 l 451 25 l 335 25 l 335 0 l 719 0 l 719 25 l 603 25 l 603 318 l 799 318 l 799 343 l 603 343 l 603 457 l 799 457 l 799 482 l 603 482 l 865 947 l 972 947 l 972 972 z "},"¢":{"ha":665,"x_min":0,"x_max":0,"o":"m 599 360 b 394 178 556 238 479 182 l 394 796 b 582 640 478 792 544 742 l 607 640 l 547 807 l 460 807 b 394 821 439 815 417 819 l 394 938 l 369 938 l 369 821 b 42 486 183 814 42 661 b 369 151 42 313 183 158 l 369 35 l 394 35 l 394 153 b 460 165 418 154 440 158 l 554 165 l 624 360 z m 369 178 b 188 486 215 188 188 381 b 369 796 188 593 215 786 z "},"¤":{"ha":778,"x_min":0,"x_max":0,"o":"m 729 486 b 636 715 729 574 694 654 l 736 815 l 718 833 l 618 733 b 389 821 558 788 479 821 b 160 733 300 821 219 788 l 60 833 l 42 815 l 142 715 b 49 486 85 654 49 574 b 142 257 49 400 85 318 l 42 157 l 60 140 l 160 240 b 389 151 219 186 300 151 b 618 240 479 151 558 186 l 718 140 l 736 157 l 636 257 b 729 486 694 318 729 400 z m 563 331 b 554 304 560 322 557 313 b 389 176 526 235 478 176 b 225 304 301 176 251 235 b 215 331 221 313 218 322 b 194 486 200 385 194 443 b 215 643 194 531 200 589 b 225 669 218 651 221 660 b 389 796 251 739 301 796 b 554 669 478 796 526 739 b 563 643 557 660 560 651 b 583 486 579 589 583 531 b 563 331 583 443 579 385 z "},"₿":{"ha":875,"x_min":0,"x_max":0,"o":"m 519 524 b 742 739 657 546 742 606 b 518 963 742 874 657 939 l 518 1121 l 493 1121 l 493 967 b 382 972 458 971 421 972 l 382 1121 l 357 1121 l 357 972 l 42 972 l 42 947 l 158 947 l 158 25 l 42 25 l 42 0 l 357 0 l 357 -149 l 382 -149 l 382 0 l 433 0 b 493 3 454 0 474 1 l 493 -149 l 518 -149 l 518 4 b 833 268 717 21 833 106 b 519 524 833 431 718 508 z m 310 947 l 406 947 b 590 739 592 947 590 788 b 406 533 590 692 592 533 l 310 533 z m 442 25 l 310 25 l 310 508 l 444 508 b 672 268 664 508 672 356 b 442 25 672 182 661 25 z "},"þ":{"ha":876,"x_min":0,"x_max":0,"o":"m 494 656 b 283 522 382 656 315 590 l 283 972 l 42 972 l 42 947 l 140 947 l 140 -306 l 42 -306 l 42 -331 l 382 -331 l 382 -306 l 283 -306 l 283 119 b 494 -14 315 53 382 -14 b 835 321 688 -14 835 143 b 494 656 835 499 688 656 z m 494 11 b 283 218 347 11 283 138 l 283 425 b 494 631 283 504 347 631 b 689 321 660 631 689 431 b 494 11 689 213 660 11 z "},"Ą":{"ha":904,"x_min":0,"x_max":0,"o":"m 471 986 l 424 986 l 113 25 l 14 25 l 14 0 l 256 0 l 256 25 l 139 25 l 239 332 l 529 332 l 632 25 l 515 25 l 515 0 l 761 0 b 726 -29 747 -10 736 -19 b 699 -56 715 -37 707 -47 b 672 -82 690 -64 682 -72 b 638 -137 658 -100 647 -118 b 622 -197 629 -157 624 -178 b 629 -242 622 -212 625 -228 b 651 -278 635 -254 642 -267 b 688 -301 661 -287 674 -296 b 736 -311 703 -308 718 -311 b 871 -254 799 -311 851 -274 l 858 -235 b 732 -228 850 -240 776 -271 b 797 0 668 -162 742 -60 l 890 0 l 890 25 l 792 25 z m 246 357 l 381 774 l 521 357 z "},"Ç":{"ha":878,"x_min":0,"x_max":0,"o":"m 500 -14 b 617 0 542 -14 581 -8 l 744 0 l 850 299 l 825 299 b 500 11 757 106 635 11 b 186 486 246 11 186 325 b 500 961 186 647 246 961 b 800 719 635 961 740 879 l 825 719 l 736 972 l 617 972 b 500 986 581 982 542 986 b 26 486 211 986 26 751 b 461 -12 26 233 194 8 l 426 -103 b 428 -107 426 -103 428 -104 b 583 -203 508 -68 596 -115 b 481 -286 576 -250 540 -286 b 376 -239 433 -286 401 -267 l 365 -258 b 489 -311 382 -279 422 -311 b 664 -201 594 -311 658 -258 b 463 -78 675 -108 560 -43 l 488 -14 b 500 -14 492 -14 496 -14 z "},"Ę":{"ha":831,"x_min":0,"x_max":0,"o":"m 588 -228 b 653 0 524 -162 597 -60 l 714 0 l 803 299 l 778 299 b 461 25 711 121 622 25 l 308 25 l 308 492 l 394 492 b 557 321 538 492 550 443 l 582 321 l 582 688 l 557 688 b 394 517 550 564 538 517 l 308 517 l 308 947 l 415 947 b 742 719 576 947 675 897 l 767 719 l 676 972 l 42 972 l 42 947 l 158 947 l 158 25 l 42 25 l 42 0 l 617 0 b 582 -29 603 -10 592 -19 b 554 -56 571 -37 563 -47 b 529 -82 546 -64 538 -72 b 493 -137 514 -100 503 -118 b 478 -197 485 -157 479 -178 b 485 -242 478 -212 481 -228 b 507 -278 490 -254 497 -267 b 543 -301 517 -287 529 -296 b 592 -311 558 -308 574 -311 b 726 -254 654 -311 707 -274 l 715 -235 b 588 -228 706 -240 632 -271 z "},"Į":{"ha":468,"x_min":0,"x_max":0,"o":"m 426 947 l 426 972 l 43 972 l 43 947 l 160 947 l 160 25 l 43 25 l 43 0 l 279 0 b 244 -29 265 -10 254 -19 b 217 -56 233 -37 225 -47 b 190 -82 208 -64 200 -72 b 156 -137 176 -100 165 -118 b 140 -197 147 -157 142 -178 b 147 -242 140 -212 143 -228 b 169 -278 153 -254 160 -267 b 206 -301 179 -287 192 -296 b 254 -311 221 -308 236 -311 b 389 -254 317 -311 369 -274 l 376 -235 b 250 -228 368 -240 294 -271 b 315 0 186 -162 260 -60 l 426 0 l 426 25 l 310 25 l 310 947 z "},"Ş":{"ha":786,"x_min":0,"x_max":0,"o":"m 758 264 b 401 599 758 394 689 489 b 185 803 232 663 185 726 b 385 961 185 865 242 961 b 676 719 519 961 617 879 l 701 719 l 613 972 l 493 972 b 376 986 457 982 418 986 b 74 747 207 986 74 890 b 343 443 74 607 157 524 b 628 201 510 369 628 338 b 379 11 628 65 531 11 b 54 299 244 11 122 106 l 29 299 l 135 0 l 263 0 b 386 -14 299 -8 344 -14 l 351 -103 b 353 -107 351 -103 351 -104 b 508 -203 433 -68 519 -115 b 406 -286 501 -250 465 -286 b 301 -239 358 -286 326 -267 l 290 -258 b 414 -311 306 -279 346 -311 b 589 -201 519 -311 583 -258 b 388 -78 599 -108 485 -43 l 413 -12 b 758 264 618 -6 758 107 z "},"Ų":{"ha":993,"x_min":0,"x_max":0,"o":"m 693 972 l 693 947 l 810 947 l 810 319 b 526 11 810 121 707 11 b 308 315 365 11 308 108 l 308 947 l 425 947 l 425 972 l 42 972 l 42 947 l 158 947 l 158 307 b 511 -14 158 60 317 -14 b 601 -4 543 -14 574 -11 b 572 -29 590 -14 581 -21 b 546 -56 563 -37 554 -47 b 519 -82 538 -64 528 -72 b 485 -137 506 -100 493 -118 b 469 -197 475 -157 471 -178 b 476 -242 469 -212 471 -228 b 499 -278 482 -254 489 -267 b 535 -301 508 -287 521 -296 b 583 -311 549 -308 565 -311 b 717 -254 646 -311 699 -274 l 706 -235 b 579 -228 696 -240 624 -271 b 653 10 511 -158 599 -47 b 835 310 764 53 835 151 l 835 947 l 950 947 l 950 972 z "},"ą":{"ha":765,"x_min":0,"x_max":0,"o":"m 738 0 l 738 25 l 639 25 l 639 392 b 344 656 643 594 538 656 b 257 642 319 656 282 651 l 169 642 l 110 475 l 135 475 b 336 631 175 582 246 631 b 496 357 486 631 496 504 l 496 350 b 303 454 467 401 410 454 b 26 219 174 454 26 388 b 303 -14 26 53 174 -14 b 496 90 410 -14 467 38 l 496 0 l 607 0 b 572 -29 593 -10 582 -19 b 544 -56 561 -37 553 -47 b 519 -82 536 -64 528 -72 b 483 -137 504 -100 493 -118 b 468 -197 475 -157 469 -178 b 475 -242 468 -212 471 -228 b 497 -278 481 -254 488 -267 b 533 -301 507 -287 519 -296 b 582 -311 549 -308 564 -311 b 717 -254 644 -311 697 -274 l 706 -235 b 578 -228 696 -240 622 -271 b 643 0 514 -162 588 -60 z m 496 176 b 318 11 496 124 450 11 b 160 219 207 11 160 117 b 318 429 160 322 207 429 b 496 263 450 429 496 317 z "},"ç":{"ha":636,"x_min":0,"x_max":0,"o":"m 367 -14 b 444 0 394 -14 421 -8 l 538 0 l 608 194 l 583 194 b 367 11 538 67 457 11 b 172 321 201 11 172 213 b 367 631 172 431 201 631 b 567 475 457 631 528 582 l 592 475 l 532 642 l 444 642 b 367 656 419 651 392 656 b 26 321 174 656 26 499 b 311 -10 26 161 146 18 l 275 -103 b 276 -107 275 -103 275 -104 b 431 -203 356 -68 443 -115 b 328 -286 424 -250 389 -286 b 224 -239 282 -286 250 -267 l 214 -258 b 338 -311 229 -279 269 -311 b 513 -201 442 -311 507 -258 b 311 -78 522 -108 408 -43 l 336 -12 b 367 -14 346 -12 357 -14 z "},"ę":{"ha":707,"x_min":0,"x_max":0,"o":"m 367 11 b 172 321 201 11 172 213 b 174 347 172 329 174 338 l 679 347 b 367 656 679 514 551 656 b 26 321 174 656 26 499 b 367 -14 26 143 174 -14 b 457 -1 400 -14 431 -10 b 425 -29 444 -11 435 -21 b 397 -56 415 -37 406 -47 b 372 -82 389 -64 381 -72 b 336 -137 357 -100 346 -118 b 322 -197 328 -157 322 -178 b 329 -242 321 -212 324 -228 b 351 -278 333 -254 340 -267 b 388 -301 361 -287 372 -296 b 435 -311 401 -308 417 -311 b 569 -254 497 -311 550 -274 l 558 -235 b 432 -228 549 -240 475 -271 b 514 19 357 -153 463 -32 b 654 158 599 63 642 132 l 629 158 b 367 11 615 128 539 11 z m 367 631 b 533 372 490 631 525 482 l 175 372 b 367 631 183 482 225 631 z "},"į":{"ha":410,"x_min":0,"x_max":0,"o":"m 382 0 l 382 25 l 283 25 l 283 642 l 42 642 l 42 617 l 140 617 l 140 25 l 42 25 l 42 0 l 251 0 b 217 -29 238 -10 226 -19 b 189 -56 207 -37 197 -47 b 164 -82 181 -64 172 -72 b 129 -137 150 -100 138 -118 b 114 -197 119 -157 114 -178 b 121 -242 113 -212 115 -228 b 143 -278 125 -254 133 -267 b 179 -301 153 -287 164 -296 b 226 -311 193 -308 208 -311 b 361 -254 289 -311 342 -274 l 350 -235 b 224 -228 340 -240 267 -271 b 288 0 160 -162 233 -60 z m 213 749 b 294 831 258 749 294 785 b 213 914 294 878 258 914 b 129 831 167 914 129 878 b 213 749 129 785 167 749 z "},"ş":{"ha":551,"x_min":0,"x_max":0,"o":"m 524 172 b 285 414 524 267 478 342 b 158 533 192 450 158 479 b 274 631 158 561 178 631 b 469 475 364 631 429 582 l 493 475 l 435 642 l 349 642 b 268 656 326 647 304 656 b 65 486 154 656 65 586 b 246 282 65 403 99 349 b 418 131 357 233 418 193 b 269 11 418 67 371 11 b 53 194 179 11 99 67 l 28 194 l 94 0 l 181 0 b 264 -14 181 0 239 -11 l 229 -103 b 231 -107 229 -103 231 -104 b 386 -203 311 -68 399 -115 b 283 -286 379 -250 343 -286 b 179 -239 236 -286 204 -267 l 168 -258 b 292 -311 185 -279 225 -311 b 467 -201 397 -311 461 -258 b 265 -78 478 -108 363 -43 l 290 -14 b 524 172 429 -8 524 67 z "},"ų":{"ha":824,"x_min":0,"x_max":0,"o":"m 796 0 l 796 25 l 697 25 l 697 642 l 457 642 l 457 617 l 556 617 l 556 269 b 363 11 554 189 508 11 b 254 193 260 11 254 117 l 254 642 l 14 642 l 14 617 l 113 617 l 113 231 b 335 -14 113 39 228 -14 b 556 146 461 -14 526 60 l 556 0 l 667 0 b 632 -29 653 -10 642 -19 b 604 -56 621 -37 613 -47 b 578 -82 596 -64 588 -72 b 543 -137 564 -100 553 -118 b 528 -197 535 -157 529 -178 b 535 -242 528 -212 531 -228 b 557 -278 540 -254 547 -267 b 593 -301 567 -287 579 -296 b 642 -311 608 -308 624 -311 b 776 -254 704 -311 757 -274 l 764 -235 b 638 -228 756 -240 682 -271 b 703 0 574 -162 647 -60 z "},"˘":{"ha":399,"x_min":0,"x_max":0,"o":"m 342 978 b 200 886 321 899 249 886 b 58 978 150 886 79 899 l 42 978 b 200 804 47 888 103 804 b 357 978 296 804 351 888 z "},"˜":{"ha":503,"x_min":0,"x_max":0,"o":"m 442 979 b 353 889 425 906 390 889 b 167 961 297 889 249 961 b 42 808 106 961 65 908 l 60 803 b 142 888 76 868 106 888 b 339 814 196 889 257 814 b 461 974 410 814 443 868 z "},"˚":{"ha":294,"x_min":0,"x_max":0,"o":"m 147 996 b 42 890 89 996 42 949 b 147 786 42 833 89 786 b 253 890 206 786 253 833 b 147 996 253 949 206 996 z m 147 808 b 64 890 101 808 64 846 b 147 974 64 936 101 974 b 231 890 193 974 231 936 b 147 808 231 846 193 808 z "},"˙":{"ha":240,"x_min":0,"x_max":0,"o":"m 121 969 b 42 890 78 969 42 933 b 121 813 42 847 78 813 b 199 890 164 813 199 847 b 121 969 199 933 164 969 z "},"¨":{"ha":503,"x_min":0,"x_max":0,"o":"m 119 969 b 42 890 76 969 42 933 b 119 813 42 847 76 813 b 197 890 163 813 197 847 b 119 969 197 933 163 969 z m 382 969 b 304 890 339 969 304 933 b 382 813 304 847 339 813 b 461 890 425 813 461 847 b 382 969 461 933 425 969 z "},"ˆ":{"ha":463,"x_min":0,"x_max":0,"o":"m 231 994 l 42 797 l 51 788 l 231 893 l 411 788 l 421 797 z "},"ˇ":{"ha":463,"x_min":0,"x_max":0,"o":"m 411 994 l 231 889 l 51 994 l 42 985 l 231 788 l 421 985 z "},"´":{"ha":267,"x_min":0,"x_max":0,"o":"m 115 999 l 42 783 l 63 783 l 225 997 z "},"˝":{"ha":475,"x_min":0,"x_max":0,"o":"m 42 783 l 63 783 l 224 997 l 114 999 z m 324 999 l 251 783 l 272 783 l 433 997 z "},"`":{"ha":265,"x_min":0,"x_max":0,"o":"m 151 999 l 42 997 l 203 783 l 224 783 z "},"¯":{"ha":457,"x_min":0,"x_max":0,"o":"m 42 903 l 42 878 l 415 878 l 415 903 z "},"¸":{"ha":383,"x_min":0,"x_max":0,"o":"m 139 -78 l 169 0 l 142 0 l 103 -103 b 104 -107 103 -103 103 -104 b 258 -203 183 -68 271 -115 b 156 -286 251 -250 217 -286 b 51 -239 110 -286 78 -267 l 42 -258 b 165 -311 57 -279 97 -311 b 340 -201 269 -311 335 -258 b 139 -78 350 -108 236 -43 z "},"˛":{"ha":332,"x_min":0,"x_max":0,"o":"m 278 -235 b 151 -228 269 -240 196 -271 b 240 25 78 -151 188 -26 l 211 25 b 181 0 200 15 189 7 b 146 -29 167 -10 156 -19 b 118 -56 135 -37 126 -47 b 92 -82 110 -64 101 -72 b 57 -137 78 -100 67 -118 b 42 -197 49 -157 43 -178 b 49 -242 42 -212 44 -228 b 71 -278 54 -254 61 -267 b 107 -301 81 -287 93 -296 b 156 -311 122 -308 138 -311 b 290 -254 218 -311 271 -274 z "},"":{"ha":257,"x_min":0,"x_max":0,"o":"m 129 -94 b 42 -182 81 -94 42 -133 b 129 -269 42 -231 82 -269 b 183 -244 164 -269 183 -244 b 88 -396 169 -304 146 -347 l 101 -412 b 215 -182 182 -350 215 -267 b 129 -94 215 -133 176 -94 z "},"Á":{"ha":904,"x_min":0,"x_max":0,"o":"m 792 24 l 471 986 l 424 986 l 113 24 l 14 24 l 14 0 l 256 0 l 256 24 l 139 24 l 239 332 l 529 332 l 632 24 l 515 24 l 515 0 l 890 0 l 890 24 z m 246 356 l 381 772 l 521 356 z m 507 1276 l 433 1061 l 454 1061 l 617 1275 z "},"Ă":{"ha":904,"x_min":0,"x_max":0,"o":"m 792 24 l 471 986 l 424 986 l 113 24 l 14 24 l 14 0 l 256 0 l 256 24 l 139 24 l 239 332 l 529 332 l 632 24 l 515 24 l 515 0 l 890 0 l 890 24 z m 246 356 l 381 772 l 521 356 z m 593 1256 b 451 1164 572 1176 500 1164 b 310 1256 401 1164 331 1176 l 293 1256 b 451 1082 299 1165 354 1082 b 608 1256 547 1082 603 1165 z "},"Â":{"ha":904,"x_min":0,"x_max":0,"o":"m 792 24 l 471 986 l 424 986 l 113 24 l 14 24 l 14 0 l 256 0 l 256 24 l 139 24 l 239 332 l 529 332 l 632 24 l 515 24 l 515 0 l 890 0 l 890 24 z m 246 356 l 381 772 l 521 356 z m 450 1272 l 261 1075 l 271 1065 l 450 1171 l 631 1065 l 640 1075 z "},"Ä":{"ha":904,"x_min":0,"x_max":0,"o":"m 792 24 l 471 986 l 424 986 l 113 24 l 14 24 l 14 0 l 256 0 l 256 24 l 139 24 l 239 332 l 529 332 l 632 24 l 515 24 l 515 0 l 890 0 l 890 24 z m 246 356 l 381 772 l 521 356 z m 318 1247 b 240 1168 275 1247 240 1211 b 318 1090 240 1125 275 1090 b 396 1168 361 1090 396 1125 b 318 1247 396 1211 361 1247 z m 581 1247 b 503 1168 538 1247 503 1211 b 581 1090 503 1125 538 1090 b 660 1168 624 1090 660 1125 b 581 1247 660 1211 624 1247 z "},"Ā":{"ha":904,"x_min":0,"x_max":0,"o":"m 792 24 l 471 986 l 424 986 l 113 24 l 14 24 l 14 0 l 256 0 l 256 24 l 139 24 l 239 332 l 529 332 l 632 24 l 515 24 l 515 0 l 890 0 l 890 24 z m 246 356 l 381 772 l 521 356 z m 264 1167 l 264 1142 l 638 1142 l 638 1167 z "},"Å":{"ha":904,"x_min":0,"x_max":0,"o":"m 792 24 l 471 986 l 424 986 l 113 24 l 14 24 l 14 0 l 256 0 l 256 24 l 139 24 l 239 332 l 529 332 l 632 24 l 515 24 l 515 0 l 890 0 l 890 24 z m 246 356 l 381 772 l 521 356 z m 450 1274 b 344 1168 392 1274 344 1226 b 450 1064 344 1111 392 1064 b 556 1168 508 1064 556 1111 b 450 1274 556 1226 508 1274 z m 450 1086 b 367 1168 404 1086 367 1124 b 450 1251 367 1214 404 1251 b 533 1168 496 1251 533 1214 b 450 1086 533 1124 496 1086 z "},"Ã":{"ha":904,"x_min":0,"x_max":0,"o":"m 792 24 l 471 986 l 424 986 l 113 24 l 14 24 l 14 0 l 256 0 l 256 24 l 139 24 l 239 332 l 529 332 l 632 24 l 515 24 l 515 0 l 890 0 l 890 24 z m 246 356 l 381 772 l 521 356 z m 640 1257 b 551 1167 624 1183 589 1167 b 365 1239 496 1167 447 1239 b 240 1086 304 1239 264 1186 l 258 1081 b 340 1165 275 1146 304 1165 b 538 1092 394 1167 456 1092 b 660 1251 608 1092 642 1146 z "},"À":{"ha":904,"x_min":0,"x_max":0,"o":"m 792 24 l 471 986 l 424 986 l 113 24 l 14 24 l 14 0 l 256 0 l 256 24 l 139 24 l 239 332 l 529 332 l 632 24 l 515 24 l 515 0 l 890 0 l 890 24 z m 246 356 l 381 772 l 521 356 z m 390 1276 l 281 1275 l 442 1061 l 463 1061 z "},"Ǽ":{"ha":1329,"x_min":0,"x_max":0,"o":"m 1276 299 b 960 25 1211 121 1121 25 l 808 25 l 808 492 l 893 492 b 1057 321 1036 492 1050 443 l 1082 321 l 1082 688 l 1057 688 b 893 517 1050 564 1036 517 l 808 517 l 808 949 l 914 949 b 1240 719 1075 949 1174 897 l 1265 719 l 1176 972 l 657 972 l 113 25 l 14 25 l 14 0 l 254 0 l 254 25 l 139 25 l 335 368 l 657 368 l 657 25 l 522 25 l 522 0 l 1213 0 l 1301 299 l 1276 299 z m 657 393 l 350 393 l 657 926 l 657 393 z m 853 1276 l 779 1061 l 800 1061 l 963 1275 z "},"Ć":{"ha":878,"x_min":0,"x_max":0,"o":"m 825 297 b 500 10 757 106 635 10 b 186 486 246 10 186 325 b 500 961 186 647 246 961 b 801 718 635 961 742 878 l 825 718 l 736 972 l 617 972 b 500 986 581 981 542 986 b 28 486 211 986 28 751 b 500 -14 28 221 211 -14 b 617 0 542 -14 581 -10 l 744 0 l 850 299 z m 496 1276 l 422 1061 l 443 1061 l 606 1275 z "},"Č":{"ha":878,"x_min":0,"x_max":0,"o":"m 825 297 b 500 10 757 106 635 10 b 186 486 246 10 186 325 b 500 961 186 647 246 961 b 801 718 635 961 742 878 l 825 718 l 736 972 l 617 972 b 500 986 581 981 542 986 b 28 486 211 986 28 751 b 500 -14 28 221 211 -14 b 617 0 542 -14 581 -10 l 744 0 l 850 299 z m 665 1272 l 485 1167 l 306 1272 l 296 1263 l 485 1065 l 675 1263 z "},"Ĉ":{"ha":878,"x_min":0,"x_max":0,"o":"m 825 297 b 500 10 757 106 635 10 b 186 486 246 10 186 325 b 500 961 186 647 246 961 b 801 718 635 961 742 878 l 825 718 l 736 972 l 617 972 b 500 986 581 981 542 986 b 28 486 211 986 28 751 b 500 -14 28 221 211 -14 b 617 0 542 -14 581 -10 l 744 0 l 850 299 z m 483 1272 l 294 1075 l 304 1065 l 483 1171 l 664 1065 l 674 1075 z "},"Ċ":{"ha":878,"x_min":0,"x_max":0,"o":"m 825 297 b 500 10 757 106 635 10 b 186 486 246 10 186 325 b 500 961 186 647 246 961 b 801 718 635 961 742 878 l 825 718 l 736 972 l 617 972 b 500 986 581 981 542 986 b 28 486 211 986 28 751 b 500 -14 28 221 211 -14 b 617 0 542 -14 581 -10 l 744 0 l 850 299 z m 486 1247 b 407 1168 443 1247 407 1211 b 486 1090 407 1125 443 1090 b 564 1168 529 1090 564 1125 b 486 1247 564 1211 529 1247 z "},"Ď":{"ha":1006,"x_min":0,"x_max":0,"o":"m 421 972 l 42 972 l 42 947 l 158 947 l 158 24 l 42 24 l 42 0 l 421 0 b 978 486 850 0 978 258 b 421 972 978 715 850 972 z m 421 24 l 310 24 l 310 947 l 421 947 b 818 486 782 947 818 629 b 421 24 818 342 782 24 z m 654 1272 l 474 1167 l 294 1272 l 285 1263 l 474 1065 l 664 1263 z "},"É":{"ha":831,"x_min":0,"x_max":0,"o":"m 778 299 b 461 24 711 121 622 24 l 310 24 l 310 490 l 394 490 b 557 319 538 490 550 442 l 582 319 l 582 688 l 557 688 b 394 515 550 564 538 515 l 310 515 l 310 947 l 415 947 b 742 718 576 947 675 896 l 767 718 l 676 972 l 42 972 l 42 947 l 158 947 l 158 24 l 42 24 l 42 0 l 714 0 l 803 299 z m 438 1276 l 364 1061 l 385 1061 l 547 1275 z "},"Ĕ":{"ha":831,"x_min":0,"x_max":0,"o":"m 778 299 b 461 24 711 121 622 24 l 310 24 l 310 490 l 394 490 b 557 319 538 490 550 442 l 582 319 l 582 688 l 557 688 b 394 515 550 564 538 515 l 310 515 l 310 947 l 415 947 b 742 718 576 947 675 896 l 767 718 l 676 972 l 42 972 l 42 947 l 158 947 l 158 24 l 42 24 l 42 0 l 714 0 l 803 299 z m 565 1256 b 424 1164 544 1176 472 1164 b 282 1256 374 1164 303 1176 l 265 1256 b 424 1082 271 1165 326 1082 b 581 1256 519 1082 575 1165 z "},"Ě":{"ha":831,"x_min":0,"x_max":0,"o":"m 778 299 b 461 24 711 121 622 24 l 310 24 l 310 490 l 394 490 b 557 319 538 490 550 442 l 582 319 l 582 688 l 557 688 b 394 515 550 564 538 515 l 310 515 l 310 947 l 415 947 b 742 718 576 947 675 896 l 767 718 l 676 972 l 42 972 l 42 947 l 158 947 l 158 24 l 42 24 l 42 0 l 714 0 l 803 299 z m 603 1272 l 422 1167 l 243 1272 l 233 1263 l 422 1065 l 613 1263 z "},"Ê":{"ha":831,"x_min":0,"x_max":0,"o":"m 778 299 b 461 24 711 121 622 24 l 310 24 l 310 490 l 394 490 b 557 319 538 490 550 442 l 582 319 l 582 688 l 557 688 b 394 515 550 564 538 515 l 310 515 l 310 947 l 415 947 b 742 718 576 947 675 896 l 767 718 l 676 972 l 42 972 l 42 947 l 158 947 l 158 24 l 42 24 l 42 0 l 714 0 l 803 299 z m 422 1272 l 233 1075 l 243 1065 l 422 1171 l 603 1065 l 613 1075 z "},"Ë":{"ha":831,"x_min":0,"x_max":0,"o":"m 778 299 b 461 24 711 121 622 24 l 310 24 l 310 490 l 394 490 b 557 319 538 490 550 442 l 582 319 l 582 688 l 557 688 b 394 515 550 564 538 515 l 310 515 l 310 947 l 415 947 b 742 718 576 947 675 896 l 767 718 l 676 972 l 42 972 l 42 947 l 158 947 l 158 24 l 42 24 l 42 0 l 714 0 l 803 299 z m 290 1247 b 213 1168 247 1247 213 1211 b 290 1090 213 1125 247 1090 b 368 1168 333 1090 368 1125 b 290 1247 368 1211 333 1247 z m 553 1247 b 475 1168 510 1247 475 1211 b 553 1090 475 1125 510 1090 b 632 1168 596 1090 632 1125 b 553 1247 632 1211 596 1247 z "},"Ė":{"ha":831,"x_min":0,"x_max":0,"o":"m 778 299 b 461 24 711 121 622 24 l 310 24 l 310 490 l 394 490 b 557 319 538 490 550 442 l 582 319 l 582 688 l 557 688 b 394 515 550 564 538 515 l 310 515 l 310 947 l 415 947 b 742 718 576 947 675 896 l 767 718 l 676 972 l 42 972 l 42 947 l 158 947 l 158 24 l 42 24 l 42 0 l 714 0 l 803 299 z m 424 1247 b 344 1168 381 1247 344 1211 b 424 1090 344 1125 381 1090 b 501 1168 467 1090 501 1125 b 424 1247 501 1211 467 1247 z "},"È":{"ha":831,"x_min":0,"x_max":0,"o":"m 778 299 b 461 24 711 121 622 24 l 310 24 l 310 490 l 394 490 b 557 319 538 490 550 442 l 582 319 l 582 688 l 557 688 b 394 515 550 564 538 515 l 310 515 l 310 947 l 415 947 b 742 718 576 947 675 896 l 767 718 l 676 972 l 42 972 l 42 947 l 158 947 l 158 24 l 42 24 l 42 0 l 714 0 l 803 299 z m 411 1276 l 301 1275 l 463 1061 l 483 1061 z "},"Ē":{"ha":831,"x_min":0,"x_max":0,"o":"m 778 299 b 461 24 711 121 622 24 l 310 24 l 310 490 l 394 490 b 557 319 538 490 550 442 l 582 319 l 582 688 l 557 688 b 394 515 550 564 538 515 l 310 515 l 310 947 l 415 947 b 742 718 576 947 675 896 l 767 718 l 676 972 l 42 972 l 42 947 l 158 947 l 158 24 l 42 24 l 42 0 l 714 0 l 803 299 z m 236 1167 l 236 1142 l 610 1142 l 610 1167 z "},"Ğ":{"ha":1039,"x_min":0,"x_max":0,"o":"m 540 467 l 540 442 l 754 442 l 754 203 b 500 10 754 156 735 10 b 188 486 246 10 188 325 b 500 961 188 647 246 961 b 801 718 635 961 742 878 l 826 718 l 736 972 l 618 972 b 500 986 581 981 542 986 b 28 486 211 986 28 751 b 500 -14 28 221 211 -14 b 817 65 668 -14 735 65 b 872 0 861 65 865 25 l 894 0 l 894 442 l 1011 442 l 1011 467 z m 663 1256 b 521 1164 642 1176 569 1164 b 379 1256 471 1164 400 1176 l 363 1256 b 521 1082 368 1165 424 1082 b 678 1256 617 1082 672 1165 z "},"Ĝ":{"ha":1039,"x_min":0,"x_max":0,"o":"m 540 467 l 540 442 l 754 442 l 754 203 b 500 10 754 156 735 10 b 188 486 246 10 188 325 b 500 961 188 647 246 961 b 801 718 635 961 742 878 l 826 718 l 736 972 l 618 972 b 500 986 581 981 542 986 b 28 486 211 986 28 751 b 500 -14 28 221 211 -14 b 817 65 668 -14 735 65 b 872 0 861 65 865 25 l 894 0 l 894 442 l 1011 442 l 1011 467 z m 519 1272 l 331 1075 l 340 1065 l 519 1171 l 700 1065 l 710 1075 z "},"Ġ":{"ha":1039,"x_min":0,"x_max":0,"o":"m 540 467 l 540 442 l 754 442 l 754 203 b 500 10 754 156 735 10 b 188 486 246 10 188 325 b 500 961 188 647 246 961 b 801 718 635 961 742 878 l 826 718 l 736 972 l 618 972 b 500 986 581 981 542 986 b 28 486 211 986 28 751 b 500 -14 28 221 211 -14 b 817 65 668 -14 735 65 b 872 0 861 65 865 25 l 894 0 l 894 442 l 1011 442 l 1011 467 z m 521 1247 b 442 1168 478 1247 442 1211 b 521 1090 442 1125 478 1090 b 599 1168 564 1090 599 1125 b 521 1247 599 1211 564 1247 z "},"Ĥ":{"ha":1047,"x_min":0,"x_max":0,"o":"m 1006 947 l 1006 972 l 621 972 l 621 947 l 738 947 l 738 511 l 310 511 l 310 947 l 425 947 l 425 972 l 42 972 l 42 947 l 158 947 l 158 24 l 42 24 l 42 0 l 425 0 l 425 24 l 310 24 l 310 486 l 738 486 l 738 24 l 621 24 l 621 0 l 1006 0 l 1006 24 l 889 24 l 889 947 z m 524 1272 l 335 1075 l 344 1065 l 524 1171 l 704 1065 l 714 1075 z "},"Í":{"ha":468,"x_min":0,"x_max":0,"o":"m 426 947 l 426 972 l 42 972 l 42 947 l 158 947 l 158 24 l 42 24 l 42 0 l 426 0 l 426 24 l 310 24 l 310 947 z m 260 1276 l 186 1061 l 207 1061 l 369 1275 z "},"Ì":{"ha":468,"x_min":0,"x_max":0,"o":"m 426 947 l 426 972 l 42 972 l 42 947 l 158 947 l 158 24 l 42 24 l 42 0 l 426 0 l 426 24 l 310 24 l 310 947 z m 228 1276 l 118 1275 l 279 1061 l 300 1061 z "},"Ĭ":{"ha":468,"x_min":0,"x_max":0,"o":"m 426 947 l 426 972 l 42 972 l 42 947 l 158 947 l 158 24 l 42 24 l 42 0 l 426 0 l 426 24 l 310 24 l 310 947 z m 376 1256 b 235 1164 356 1176 283 1164 b 93 1256 185 1164 114 1176 l 76 1256 b 235 1082 82 1165 138 1082 b 392 1256 331 1082 386 1165 z "},"Î":{"ha":468,"x_min":0,"x_max":0,"o":"m 426 947 l 426 972 l 42 972 l 42 947 l 158 947 l 158 24 l 42 24 l 42 0 l 426 0 l 426 24 l 310 24 l 310 947 z m 233 1272 l 44 1075 l 54 1065 l 233 1171 l 414 1065 l 424 1075 z "},"Ï":{"ha":468,"x_min":0,"x_max":0,"o":"m 426 947 l 426 972 l 42 972 l 42 947 l 158 947 l 158 24 l 42 24 l 42 0 l 426 0 l 426 24 l 310 24 l 310 947 z m 101 1247 b 24 1168 58 1247 24 1211 b 101 1090 24 1125 58 1090 b 179 1168 144 1090 179 1125 b 101 1247 179 1211 144 1247 z m 364 1247 b 286 1168 321 1247 286 1211 b 364 1090 286 1125 321 1090 b 443 1168 407 1090 443 1125 b 364 1247 443 1211 407 1247 z "},"İ":{"ha":468,"x_min":0,"x_max":0,"o":"m 426 947 l 426 972 l 42 972 l 42 947 l 158 947 l 158 24 l 42 24 l 42 0 l 426 0 l 426 24 l 310 24 l 310 947 z m 235 1247 b 156 1168 192 1247 156 1211 b 235 1090 156 1125 192 1090 b 313 1168 278 1090 313 1125 b 235 1247 313 1211 278 1247 z "},"Ī":{"ha":468,"x_min":0,"x_max":0,"o":"m 426 947 l 426 972 l 42 972 l 42 947 l 158 947 l 158 24 l 42 24 l 42 0 l 426 0 l 426 24 l 310 24 l 310 947 z m 47 1167 l 47 1142 l 421 1142 l 421 1167 z "},"Ĩ":{"ha":468,"x_min":0,"x_max":0,"o":"m 426 947 l 426 972 l 42 972 l 42 947 l 158 947 l 158 24 l 42 24 l 42 0 l 426 0 l 426 24 l 310 24 l 310 947 z m 424 1257 b 335 1167 407 1183 372 1167 b 149 1239 279 1167 231 1239 b 24 1086 88 1239 47 1186 l 42 1081 b 124 1165 58 1146 88 1165 b 321 1092 178 1167 239 1092 b 443 1251 392 1092 425 1146 z "},"Ĵ":{"ha":726,"x_min":0,"x_max":0,"o":"m 300 972 l 300 947 l 417 947 l 417 332 b 253 11 417 126 406 11 b 133 286 154 11 85 108 l 111 299 l 28 61 b 263 -14 28 61 146 -14 b 568 306 451 -14 568 71 l 568 947 l 685 947 l 685 972 z m 492 1272 l 303 1075 l 313 1065 l 492 1171 l 672 1065 l 682 1075 z "},"Ĺ":{"ha":831,"x_min":0,"x_max":0,"o":"m 779 299 b 461 24 713 121 622 24 l 310 24 l 310 947 l 426 947 l 426 972 l 42 972 l 42 947 l 158 947 l 158 24 l 42 24 l 42 0 l 714 0 l 803 299 z m 249 1276 l 175 1061 l 196 1061 l 358 1275 z "},"Ľ":{"ha":831,"x_min":0,"x_max":0,"o":"m 779 299 b 461 24 713 121 622 24 l 310 24 l 310 947 l 426 947 l 426 972 l 42 972 l 42 947 l 158 947 l 158 24 l 42 24 l 42 0 l 714 0 l 803 299 z m 604 979 b 517 893 556 979 517 940 b 604 806 517 844 557 806 b 660 831 639 806 660 831 b 563 679 644 771 621 728 l 578 661 b 692 893 657 725 692 808 b 604 979 692 940 653 979 z "},"Ń":{"ha":954,"x_min":0,"x_max":0,"o":"m 654 972 l 654 947 l 771 947 l 771 232 l 294 972 l 42 972 l 42 947 l 158 947 l 158 25 l 42 25 l 42 0 l 299 0 l 299 25 l 183 25 l 182 876 l 763 -14 l 796 -14 l 796 947 l 913 947 l 913 972 z m 493 1276 l 419 1061 l 440 1061 l 603 1275 z "},"Ň":{"ha":954,"x_min":0,"x_max":0,"o":"m 654 972 l 654 947 l 771 947 l 771 232 l 294 972 l 42 972 l 42 947 l 158 947 l 158 25 l 42 25 l 42 0 l 299 0 l 299 25 l 183 25 l 182 876 l 763 -14 l 796 -14 l 796 947 l 913 947 l 913 972 z m 657 1272 l 476 1167 l 297 1272 l 288 1263 l 476 1065 l 667 1263 z "},"Ñ":{"ha":954,"x_min":0,"x_max":0,"o":"m 654 972 l 654 947 l 771 947 l 771 232 l 294 972 l 42 972 l 42 947 l 158 947 l 158 25 l 42 25 l 42 0 l 299 0 l 299 25 l 183 25 l 182 876 l 763 -14 l 796 -14 l 796 947 l 913 947 l 913 972 z m 667 1257 b 578 1167 650 1183 615 1167 b 392 1239 522 1167 474 1239 b 267 1086 331 1239 290 1186 l 285 1081 b 367 1165 301 1146 331 1165 b 564 1092 421 1167 482 1092 b 686 1251 635 1092 668 1146 z "},"Ó":{"ha":1003,"x_min":0,"x_max":0,"o":"m 501 986 b 28 486 213 986 28 751 b 501 -14 28 221 213 -14 b 975 486 790 -14 975 221 b 501 986 975 751 790 986 z m 501 11 b 188 486 246 11 188 325 b 501 961 188 647 246 961 b 815 486 756 961 815 647 b 501 11 815 325 756 11 z m 521 1276 l 447 1061 l 468 1061 l 631 1275 z "},"Ŏ":{"ha":1003,"x_min":0,"x_max":0,"o":"m 501 986 b 28 486 213 986 28 751 b 501 -14 28 221 213 -14 b 975 486 790 -14 975 221 b 501 986 975 751 790 986 z m 501 11 b 188 486 246 11 188 325 b 501 961 188 647 246 961 b 815 486 756 961 815 647 b 501 11 815 325 756 11 z m 644 1256 b 503 1164 624 1176 551 1164 b 361 1256 453 1164 382 1176 l 344 1256 b 503 1082 350 1165 406 1082 b 660 1256 599 1082 654 1165 z "},"Ô":{"ha":1003,"x_min":0,"x_max":0,"o":"m 501 986 b 28 486 213 986 28 751 b 501 -14 28 221 213 -14 b 975 486 790 -14 975 221 b 501 986 975 751 790 986 z m 501 11 b 188 486 246 11 188 325 b 501 961 188 647 246 961 b 815 486 756 961 815 647 b 501 11 815 325 756 11 z m 501 1272 l 313 1075 l 322 1065 l 501 1171 l 682 1065 l 692 1075 z "},"Ö":{"ha":1003,"x_min":0,"x_max":0,"o":"m 501 986 b 28 486 213 986 28 751 b 501 -14 28 221 213 -14 b 975 486 790 -14 975 221 b 501 986 975 751 790 986 z m 501 11 b 188 486 246 11 188 325 b 501 961 188 647 246 961 b 815 486 756 961 815 647 b 501 11 815 325 756 11 z m 369 1247 b 292 1168 326 1247 292 1211 b 369 1090 292 1125 326 1090 b 447 1168 413 1090 447 1125 b 369 1247 447 1211 413 1247 z m 632 1247 b 554 1168 589 1247 554 1211 b 632 1090 554 1125 589 1090 b 711 1168 675 1090 711 1125 b 632 1247 711 1211 675 1247 z "},"Ő":{"ha":1003,"x_min":0,"x_max":0,"o":"m 501 986 b 28 486 213 986 28 751 b 501 -14 28 221 213 -14 b 975 486 790 -14 975 221 b 501 986 975 751 790 986 z m 501 11 b 188 486 246 11 188 325 b 501 961 188 647 246 961 b 815 486 756 961 815 647 b 501 11 815 325 756 11 z m 372 1061 l 393 1061 l 554 1275 l 444 1276 z m 654 1276 l 582 1061 l 603 1061 l 764 1275 z "},"Ō":{"ha":1003,"x_min":0,"x_max":0,"o":"m 501 986 b 28 486 213 986 28 751 b 501 -14 28 221 213 -14 b 975 486 790 -14 975 221 b 501 986 975 751 790 986 z m 501 11 b 188 486 246 11 188 325 b 501 961 188 647 246 961 b 815 486 756 961 815 647 b 501 11 815 325 756 11 z m 315 1167 l 315 1142 l 689 1142 l 689 1167 z "},"Õ":{"ha":1003,"x_min":0,"x_max":0,"o":"m 501 986 b 28 486 213 986 28 751 b 501 -14 28 221 213 -14 b 975 486 790 -14 975 221 b 501 986 975 751 790 986 z m 501 11 b 188 486 246 11 188 325 b 501 961 188 647 246 961 b 815 486 756 961 815 647 b 501 11 815 325 756 11 z m 692 1257 b 603 1167 675 1183 640 1167 b 417 1239 547 1167 499 1239 b 292 1086 356 1239 315 1186 l 310 1081 b 392 1165 326 1146 356 1165 b 589 1092 446 1167 507 1092 b 711 1251 660 1092 693 1146 z "},"Ò":{"ha":1003,"x_min":0,"x_max":0,"o":"m 501 986 b 28 486 213 986 28 751 b 501 -14 28 221 213 -14 b 975 486 790 -14 975 221 b 501 986 975 751 790 986 z m 501 11 b 188 486 246 11 188 325 b 501 961 188 647 246 961 b 815 486 756 961 815 647 b 501 11 815 325 756 11 z m 482 1276 l 372 1275 l 533 1061 l 554 1061 z "},"Ǿ":{"ha":1003,"x_min":0,"x_max":0,"o":"m 779 897 l 878 1051 l 857 1065 l 758 913 b 501 986 688 958 600 986 b 28 486 213 986 28 751 b 224 75 28 321 100 168 l 125 -79 l 146 -93 l 243 61 b 501 -14 315 14 401 -14 b 974 486 790 -14 974 221 b 779 897 974 651 903 806 z m 188 486 b 501 961 188 647 246 961 b 717 847 600 961 669 914 l 271 149 b 188 486 207 253 188 394 z m 501 11 b 285 126 403 11 333 58 l 732 824 b 814 486 796 719 814 578 b 501 11 814 325 756 11 z m 524 1276 l 450 1061 l 471 1061 l 633 1275 z "},"Ŕ":{"ha":993,"x_min":0,"x_max":0,"o":"m 972 43 b 889 11 965 38 942 11 b 803 226 810 11 803 117 b 556 490 803 399 714 463 b 781 725 688 518 781 592 b 419 972 781 901 621 972 l 42 972 l 42 947 l 158 947 l 158 25 l 42 25 l 42 0 l 425 0 l 425 25 l 310 25 l 310 478 l 414 478 b 643 261 632 478 643 378 b 863 -14 643 76 707 -14 b 979 35 936 -14 974 28 z m 310 503 l 310 947 l 421 947 b 622 725 590 947 622 832 b 421 503 622 618 590 503 z m 440 1276 l 367 1061 l 388 1061 l 550 1275 z "},"Ř":{"ha":993,"x_min":0,"x_max":0,"o":"m 972 43 b 889 11 965 38 942 11 b 803 226 810 11 803 117 b 556 490 803 399 714 463 b 781 725 688 518 781 592 b 419 972 781 901 621 972 l 42 972 l 42 947 l 158 947 l 158 25 l 42 25 l 42 0 l 425 0 l 425 25 l 310 25 l 310 478 l 414 478 b 643 261 632 478 643 378 b 863 -14 643 76 707 -14 b 979 35 936 -14 974 28 z m 310 503 l 310 947 l 421 947 b 622 725 590 947 622 832 b 421 503 622 618 590 503 z m 597 1272 l 417 1167 l 238 1272 l 228 1263 l 417 1065 l 607 1263 z "},"Ś":{"ha":786,"x_min":0,"x_max":0,"o":"m 400 599 b 183 803 231 663 183 726 b 383 961 183 865 240 961 b 676 718 518 961 617 879 l 700 718 l 611 972 l 492 972 b 375 986 456 982 417 986 b 72 747 206 986 72 890 b 342 443 72 607 156 524 b 626 201 508 369 626 338 b 378 11 626 65 529 11 b 53 299 243 11 121 106 l 28 299 l 133 0 l 261 0 b 388 -14 297 -8 346 -14 b 758 264 607 -14 758 100 b 400 599 758 394 688 489 z m 410 1276 l 336 1061 l 357 1061 l 519 1275 z "},"Š":{"ha":786,"x_min":0,"x_max":0,"o":"m 400 599 b 183 803 231 663 183 726 b 383 961 183 865 240 961 b 676 718 518 961 617 879 l 700 718 l 611 972 l 492 972 b 375 986 456 982 417 986 b 72 747 206 986 72 890 b 342 443 72 607 156 524 b 626 201 508 369 626 338 b 378 11 626 65 529 11 b 53 299 243 11 121 106 l 28 299 l 133 0 l 261 0 b 388 -14 297 -8 346 -14 b 758 264 607 -14 758 100 b 400 599 758 394 688 489 z m 574 1272 l 393 1167 l 214 1272 l 204 1263 l 393 1065 l 583 1263 z "},"Ŝ":{"ha":786,"x_min":0,"x_max":0,"o":"m 400 599 b 183 803 231 663 183 726 b 383 961 183 865 240 961 b 676 718 518 961 617 879 l 700 718 l 611 972 l 492 972 b 375 986 456 982 417 986 b 72 747 206 986 72 890 b 342 443 72 607 156 524 b 626 201 508 369 626 338 b 378 11 626 65 529 11 b 53 299 243 11 121 106 l 28 299 l 133 0 l 261 0 b 388 -14 297 -8 346 -14 b 758 264 607 -14 758 100 b 400 599 758 394 688 489 z m 393 1272 l 204 1075 l 214 1065 l 393 1171 l 574 1065 l 583 1075 z "},"Ť":{"ha":951,"x_min":0,"x_max":0,"o":"m 849 972 l 104 972 l 14 718 l 39 718 b 365 947 106 897 204 947 l 400 947 l 400 25 l 283 25 l 283 0 l 668 0 l 668 25 l 551 25 l 551 947 l 586 947 b 914 718 747 947 847 897 l 938 718 z m 656 1272 l 475 1167 l 296 1272 l 286 1263 l 475 1065 l 665 1263 z "},"Ú":{"ha":993,"x_min":0,"x_max":0,"o":"m 693 972 l 693 947 l 810 947 l 810 319 b 526 11 810 121 708 11 b 310 315 365 11 310 108 l 310 947 l 426 947 l 426 972 l 42 972 l 42 947 l 158 947 l 158 307 b 513 -14 158 60 318 -14 b 835 310 701 -14 835 90 l 835 947 l 951 947 l 951 972 z m 553 1276 l 479 1061 l 500 1061 l 663 1275 z "},"Ŭ":{"ha":993,"x_min":0,"x_max":0,"o":"m 693 972 l 693 947 l 810 947 l 810 319 b 526 11 810 121 708 11 b 310 315 365 11 310 108 l 310 947 l 426 947 l 426 972 l 42 972 l 42 947 l 158 947 l 158 307 b 513 -14 158 60 318 -14 b 835 310 701 -14 835 90 l 835 947 l 951 947 l 951 972 z m 675 1256 b 533 1164 654 1176 582 1164 b 392 1256 483 1164 413 1176 l 375 1256 b 533 1082 381 1165 436 1082 b 690 1256 629 1082 685 1165 z "},"Û":{"ha":993,"x_min":0,"x_max":0,"o":"m 693 972 l 693 947 l 810 947 l 810 319 b 526 11 810 121 708 11 b 310 315 365 11 310 108 l 310 947 l 426 947 l 426 972 l 42 972 l 42 947 l 158 947 l 158 307 b 513 -14 158 60 318 -14 b 835 310 701 -14 835 90 l 835 947 l 951 947 l 951 972 z m 532 1272 l 343 1075 l 353 1065 l 532 1171 l 713 1065 l 722 1075 z "},"Ü":{"ha":993,"x_min":0,"x_max":0,"o":"m 693 972 l 693 947 l 810 947 l 810 319 b 526 11 810 121 708 11 b 310 315 365 11 310 108 l 310 947 l 426 947 l 426 972 l 42 972 l 42 947 l 158 947 l 158 307 b 513 -14 158 60 318 -14 b 835 310 701 -14 835 90 l 835 947 l 951 947 l 951 972 z m 400 1247 b 322 1168 357 1247 322 1211 b 400 1090 322 1125 357 1090 b 478 1168 443 1090 478 1125 b 400 1247 478 1211 443 1247 z m 663 1247 b 585 1168 619 1247 585 1211 b 663 1090 585 1125 619 1090 b 742 1168 706 1090 742 1125 b 663 1247 742 1211 706 1247 z "},"Ů":{"ha":993,"x_min":0,"x_max":0,"o":"m 693 972 l 693 947 l 810 947 l 810 319 b 526 11 810 121 708 11 b 310 315 365 11 310 108 l 310 947 l 426 947 l 426 972 l 42 972 l 42 947 l 158 947 l 158 307 b 513 -14 158 60 318 -14 b 835 310 701 -14 835 90 l 835 947 l 951 947 l 951 972 z m 532 1274 b 426 1168 474 1274 426 1226 b 532 1064 426 1111 474 1064 b 638 1168 590 1064 638 1111 b 532 1274 638 1226 590 1274 z m 532 1086 b 449 1168 486 1086 449 1124 b 532 1251 449 1214 486 1251 b 615 1168 578 1251 615 1214 b 532 1086 615 1124 578 1086 z "},"Ũ":{"ha":993,"x_min":0,"x_max":0,"o":"m 693 972 l 693 947 l 810 947 l 810 319 b 526 11 810 121 708 11 b 310 315 365 11 310 108 l 310 947 l 426 947 l 426 972 l 42 972 l 42 947 l 158 947 l 158 307 b 513 -14 158 60 318 -14 b 835 310 701 -14 835 90 l 835 947 l 951 947 l 951 972 z m 722 1257 b 633 1167 706 1183 671 1167 b 447 1239 578 1167 529 1239 b 322 1086 386 1239 346 1186 l 340 1081 b 422 1165 357 1146 386 1165 b 619 1092 476 1167 538 1092 b 742 1251 690 1092 724 1146 z "},"Ū":{"ha":993,"x_min":0,"x_max":0,"o":"m 693 972 l 693 947 l 810 947 l 810 319 b 526 11 810 121 708 11 b 310 315 365 11 310 108 l 310 947 l 426 947 l 426 972 l 42 972 l 42 947 l 158 947 l 158 307 b 513 -14 158 60 318 -14 b 835 310 701 -14 835 90 l 835 947 l 951 947 l 951 972 z m 346 1167 l 346 1142 l 719 1142 l 719 1167 z "},"Ù":{"ha":993,"x_min":0,"x_max":0,"o":"m 693 972 l 693 947 l 810 947 l 810 319 b 526 11 810 121 708 11 b 310 315 365 11 310 108 l 310 947 l 426 947 l 426 972 l 42 972 l 42 947 l 158 947 l 158 307 b 513 -14 158 60 318 -14 b 835 310 701 -14 835 90 l 835 947 l 951 947 l 951 972 z m 535 1276 l 425 1275 l 586 1061 l 607 1061 z "},"Ű":{"ha":993,"x_min":0,"x_max":0,"o":"m 693 972 l 693 947 l 810 947 l 810 319 b 526 11 810 121 708 11 b 310 315 365 11 310 108 l 310 947 l 426 947 l 426 972 l 42 972 l 42 947 l 158 947 l 158 307 b 513 -14 158 60 318 -14 b 835 310 701 -14 835 90 l 835 947 l 951 947 l 951 972 z m 397 1061 l 418 1061 l 579 1275 l 469 1276 z m 679 1276 l 607 1061 l 628 1061 l 789 1275 z "},"Ẃ":{"ha":1438,"x_min":0,"x_max":0,"o":"m 1182 972 l 1182 947 l 1299 947 l 1071 200 l 800 947 l 917 947 l 917 972 l 539 972 l 539 947 l 638 947 l 711 744 l 544 200 l 275 947 l 392 947 l 392 972 l 14 972 l 14 947 l 113 947 l 460 -14 l 507 -14 l 725 704 l 985 -14 l 1032 -14 l 1325 947 l 1424 947 l 1424 972 z m 740 1276 l 667 1061 l 688 1061 l 850 1275 z "},"Ŵ":{"ha":1438,"x_min":0,"x_max":0,"o":"m 1182 972 l 1182 947 l 1299 947 l 1071 200 l 800 947 l 917 947 l 917 972 l 539 972 l 539 947 l 638 947 l 711 744 l 544 200 l 275 947 l 392 947 l 392 972 l 14 972 l 14 947 l 113 947 l 460 -14 l 507 -14 l 725 704 l 985 -14 l 1032 -14 l 1325 947 l 1424 947 l 1424 972 z m 718 1272 l 529 1075 l 539 1065 l 718 1171 l 899 1065 l 908 1075 z "},"Ẅ":{"ha":1438,"x_min":0,"x_max":0,"o":"m 1182 972 l 1182 947 l 1299 947 l 1071 200 l 800 947 l 917 947 l 917 972 l 539 972 l 539 947 l 638 947 l 711 744 l 544 200 l 275 947 l 392 947 l 392 972 l 14 972 l 14 947 l 113 947 l 460 -14 l 507 -14 l 725 704 l 985 -14 l 1032 -14 l 1325 947 l 1424 947 l 1424 972 z m 586 1247 b 508 1168 543 1247 508 1211 b 586 1090 508 1125 543 1090 b 664 1168 629 1090 664 1125 b 586 1247 664 1211 629 1247 z m 849 1247 b 771 1168 806 1247 771 1211 b 849 1090 771 1125 806 1090 b 928 1168 892 1090 928 1125 b 849 1247 928 1211 892 1247 z "},"Ẁ":{"ha":1438,"x_min":0,"x_max":0,"o":"m 1182 972 l 1182 947 l 1299 947 l 1071 200 l 800 947 l 917 947 l 917 972 l 539 972 l 539 947 l 638 947 l 711 744 l 544 200 l 275 947 l 392 947 l 392 972 l 14 972 l 14 947 l 113 947 l 460 -14 l 507 -14 l 725 704 l 985 -14 l 1032 -14 l 1325 947 l 1424 947 l 1424 972 z m 704 1276 l 594 1275 l 756 1061 l 776 1061 z "},"Ŷ":{"ha":960,"x_min":0,"x_max":0,"o":"m 685 972 l 685 947 l 811 947 l 563 504 l 297 947 l 422 947 l 422 972 l 14 972 l 14 947 l 122 947 l 425 443 l 425 25 l 308 25 l 308 0 l 693 0 l 693 25 l 576 25 l 576 482 l 839 947 l 946 947 l 946 972 z m 542 1272 l 353 1075 l 363 1065 l 542 1171 l 722 1065 l 732 1075 z "},"Ý":{"ha":960,"x_min":0,"x_max":0,"o":"m 685 972 l 685 947 l 811 947 l 563 504 l 297 947 l 422 947 l 422 972 l 14 972 l 14 947 l 122 947 l 425 443 l 425 25 l 308 25 l 308 0 l 693 0 l 693 25 l 576 25 l 576 482 l 839 947 l 946 947 l 946 972 z m 526 1276 l 453 1061 l 474 1061 l 636 1275 z "},"Ÿ":{"ha":960,"x_min":0,"x_max":0,"o":"m 685 972 l 685 947 l 811 947 l 563 504 l 297 947 l 422 947 l 422 972 l 14 972 l 14 947 l 122 947 l 425 443 l 425 25 l 308 25 l 308 0 l 693 0 l 693 25 l 576 25 l 576 482 l 839 947 l 946 947 l 946 972 z m 411 1247 b 333 1168 368 1247 333 1211 b 411 1090 333 1125 368 1090 b 489 1168 454 1090 489 1125 b 411 1247 489 1211 454 1247 z m 674 1247 b 596 1168 631 1247 596 1211 b 674 1090 596 1125 631 1090 b 753 1168 717 1090 753 1125 b 674 1247 753 1211 717 1247 z "},"Ỳ":{"ha":960,"x_min":0,"x_max":0,"o":"m 685 972 l 685 947 l 811 947 l 563 504 l 297 947 l 422 947 l 422 972 l 14 972 l 14 947 l 122 947 l 425 443 l 425 25 l 308 25 l 308 0 l 693 0 l 693 25 l 576 25 l 576 482 l 839 947 l 946 947 l 946 972 z m 544 1276 l 435 1275 l 596 1061 l 617 1061 z "},"Ź":{"ha":817,"x_min":0,"x_max":0,"o":"m 765 299 b 447 25 699 121 608 25 l 217 25 l 733 972 l 128 972 l 39 718 l 63 718 b 390 947 129 897 229 947 l 544 947 l 28 0 l 700 0 l 789 299 z m 428 1276 l 354 1061 l 375 1061 l 538 1275 z "},"Ž":{"ha":817,"x_min":0,"x_max":0,"o":"m 765 299 b 447 25 699 121 608 25 l 217 25 l 733 972 l 128 972 l 39 718 l 63 718 b 390 947 129 897 229 947 l 544 947 l 28 0 l 700 0 l 789 299 z m 588 1272 l 407 1167 l 228 1272 l 218 1263 l 407 1065 l 597 1263 z "},"Ż":{"ha":817,"x_min":0,"x_max":0,"o":"m 765 299 b 447 25 699 121 608 25 l 217 25 l 733 972 l 128 972 l 39 718 l 63 718 b 390 947 129 897 229 947 l 544 947 l 28 0 l 700 0 l 789 299 z m 410 1247 b 331 1168 367 1247 331 1211 b 410 1090 331 1125 367 1090 b 488 1168 453 1090 488 1125 b 410 1247 488 1211 453 1247 z "},"á":{"ha":765,"x_min":0,"x_max":0,"o":"m 639 25 l 639 392 b 344 656 643 594 538 656 b 258 642 314 656 276 647 l 171 642 l 111 475 l 136 475 b 336 631 175 582 246 631 b 497 357 488 631 497 504 l 497 350 b 304 454 468 401 411 454 b 28 219 174 454 28 388 b 304 -14 28 53 174 -14 b 497 90 411 -14 468 39 l 497 0 l 738 0 l 738 25 z m 497 176 b 319 11 497 124 451 11 b 161 219 207 11 161 117 b 319 429 161 324 207 429 b 497 264 451 429 497 317 z m 401 957 l 328 742 l 349 742 l 511 956 z "},"ă":{"ha":765,"x_min":0,"x_max":0,"o":"m 639 25 l 639 392 b 344 656 643 594 538 656 b 258 642 314 656 276 647 l 171 642 l 111 475 l 136 475 b 336 631 175 582 246 631 b 497 357 488 631 497 504 l 497 350 b 304 454 468 401 411 454 b 28 219 174 454 28 388 b 304 -14 28 53 174 -14 b 497 90 411 -14 468 39 l 497 0 l 738 0 l 738 25 z m 497 176 b 319 11 497 124 451 11 b 161 219 207 11 161 117 b 319 429 161 324 207 429 b 497 264 451 429 497 317 z m 525 936 b 383 844 504 857 432 844 b 242 936 333 844 263 857 l 225 936 b 383 763 231 846 286 763 b 540 936 479 763 535 846 z "},"â":{"ha":765,"x_min":0,"x_max":0,"o":"m 639 25 l 639 392 b 344 656 643 594 538 656 b 258 642 314 656 276 647 l 171 642 l 111 475 l 136 475 b 336 631 175 582 246 631 b 497 357 488 631 497 504 l 497 350 b 304 454 468 401 411 454 b 28 219 174 454 28 388 b 304 -14 28 53 174 -14 b 497 90 411 -14 468 39 l 497 0 l 738 0 l 738 25 z m 497 176 b 319 11 497 124 451 11 b 161 219 207 11 161 117 b 319 429 161 324 207 429 b 497 264 451 429 497 317 z m 382 953 l 193 756 l 203 746 l 382 851 l 563 746 l 572 756 z "},"ä":{"ha":765,"x_min":0,"x_max":0,"o":"m 639 25 l 639 392 b 344 656 643 594 538 656 b 258 642 314 656 276 647 l 171 642 l 111 475 l 136 475 b 336 631 175 582 246 631 b 497 357 488 631 497 504 l 497 350 b 304 454 468 401 411 454 b 28 219 174 454 28 388 b 304 -14 28 53 174 -14 b 497 90 411 -14 468 39 l 497 0 l 738 0 l 738 25 z m 497 176 b 319 11 497 124 451 11 b 161 219 207 11 161 117 b 319 429 161 324 207 429 b 497 264 451 429 497 317 z m 250 928 b 172 849 207 928 172 892 b 250 771 172 806 207 771 b 328 849 293 771 328 806 b 250 928 328 892 293 928 z m 513 928 b 435 849 469 928 435 892 b 513 771 435 806 469 771 b 592 849 556 771 592 806 b 513 928 592 892 556 928 z "},"ā":{"ha":765,"x_min":0,"x_max":0,"o":"m 639 25 l 639 392 b 344 656 643 594 538 656 b 258 642 314 656 276 647 l 171 642 l 111 475 l 136 475 b 336 631 175 582 246 631 b 497 357 488 631 497 504 l 497 350 b 304 454 468 401 411 454 b 28 219 174 454 28 388 b 304 -14 28 53 174 -14 b 497 90 411 -14 468 39 l 497 0 l 738 0 l 738 25 z m 497 176 b 319 11 497 124 451 11 b 161 219 207 11 161 117 b 319 429 161 324 207 429 b 497 264 451 429 497 317 z m 196 847 l 196 822 l 569 822 l 569 847 z "},"å":{"ha":765,"x_min":0,"x_max":0,"o":"m 639 25 l 639 392 b 344 656 643 594 538 656 b 258 642 314 656 276 647 l 171 642 l 111 475 l 136 475 b 336 631 175 582 246 631 b 497 357 488 631 497 504 l 497 350 b 304 454 468 401 411 454 b 28 219 174 454 28 388 b 304 -14 28 53 174 -14 b 497 90 411 -14 468 39 l 497 0 l 738 0 l 738 25 z m 497 176 b 319 11 497 124 451 11 b 161 219 207 11 161 117 b 319 429 161 324 207 429 b 497 264 451 429 497 317 z m 382 954 b 276 849 324 954 276 907 b 382 744 276 792 324 744 b 488 849 440 744 488 792 b 382 954 488 907 440 954 z m 382 767 b 299 849 336 767 299 804 b 382 932 299 894 336 932 b 465 849 428 932 465 894 b 382 767 465 804 428 767 z "},"ã":{"ha":765,"x_min":0,"x_max":0,"o":"m 639 25 l 639 392 b 344 656 643 594 538 656 b 258 642 314 656 276 647 l 171 642 l 111 475 l 136 475 b 336 631 175 582 246 631 b 497 357 488 631 497 504 l 497 350 b 304 454 468 401 411 454 b 28 219 174 454 28 388 b 304 -14 28 53 174 -14 b 497 90 411 -14 468 39 l 497 0 l 738 0 l 738 25 z m 497 176 b 319 11 497 124 451 11 b 161 219 207 11 161 117 b 319 429 161 324 207 429 b 497 264 451 429 497 317 z m 572 938 b 483 847 556 864 521 847 b 297 919 428 847 379 919 b 172 767 236 919 196 867 l 190 761 b 272 846 207 826 236 846 b 469 772 326 847 388 772 b 592 932 540 772 574 826 z "},"à":{"ha":765,"x_min":0,"x_max":0,"o":"m 639 25 l 639 392 b 344 656 643 594 538 656 b 258 642 314 656 276 647 l 171 642 l 111 475 l 136 475 b 336 631 175 582 246 631 b 497 357 488 631 497 504 l 497 350 b 304 454 468 401 411 454 b 28 219 174 454 28 388 b 304 -14 28 53 174 -14 b 497 90 411 -14 468 39 l 497 0 l 738 0 l 738 25 z m 497 176 b 319 11 497 124 451 11 b 161 219 207 11 161 117 b 319 429 161 324 207 429 b 497 264 451 429 497 317 z m 360 957 l 250 956 l 411 742 l 432 742 z "},"ǽ":{"ha":1165,"x_min":0,"x_max":0,"o":"m 843 11 b 631 321 653 11 631 213 b 631 347 631 329 631 338 l 1138 347 b 825 656 1138 514 1008 656 b 593 561 732 656 651 619 b 346 656 547 631 469 656 b 260 642 321 656 283 651 l 172 642 l 113 475 l 136 475 b 338 631 176 582 247 631 b 497 357 489 631 497 504 l 497 357 b 497 356 497 357 497 356 b 304 454 467 406 408 454 b 28 219 175 454 28 388 b 304 -14 28 53 175 -14 b 531 167 436 -14 506 81 b 843 -14 581 61 688 -14 b 1121 158 1026 -14 1103 119 l 1096 158 b 843 11 1082 128 1015 11 z m 825 631 b 990 372 949 631 983 483 l 632 372 b 825 631 642 483 683 631 z m 319 11 b 163 219 208 11 163 117 b 319 428 163 324 208 428 b 497 300 426 428 479 357 b 514 207 499 268 504 236 b 319 11 504 115 446 11 z m 617 957 l 543 742 l 564 742 l 726 956 z "},"ć":{"ha":636,"x_min":0,"x_max":0,"o":"m 585 194 b 368 11 539 67 457 11 b 174 321 201 11 174 213 b 367 631 174 431 201 631 b 568 475 457 631 528 582 l 592 475 l 532 642 l 446 642 b 367 656 421 653 393 656 b 28 321 174 656 28 499 b 368 -14 28 143 174 -14 b 446 0 394 -14 422 -8 l 539 0 l 608 194 z m 365 957 l 292 742 l 313 742 l 475 956 z "},"č":{"ha":636,"x_min":0,"x_max":0,"o":"m 585 194 b 368 11 539 67 457 11 b 174 321 201 11 174 213 b 367 631 174 431 201 631 b 568 475 457 631 528 582 l 592 475 l 532 642 l 446 642 b 367 656 421 653 393 656 b 28 321 174 656 28 499 b 368 -14 28 143 174 -14 b 446 0 394 -14 422 -8 l 539 0 l 608 194 z m 499 953 l 318 847 l 139 953 l 129 943 l 318 746 l 508 943 z "},"ĉ":{"ha":636,"x_min":0,"x_max":0,"o":"m 585 194 b 368 11 539 67 457 11 b 174 321 201 11 174 213 b 367 631 174 431 201 631 b 568 475 457 631 528 582 l 592 475 l 532 642 l 446 642 b 367 656 421 653 393 656 b 28 321 174 656 28 499 b 368 -14 28 143 174 -14 b 446 0 394 -14 422 -8 l 539 0 l 608 194 z m 318 953 l 129 756 l 139 746 l 318 851 l 499 746 l 508 756 z "},"ċ":{"ha":636,"x_min":0,"x_max":0,"o":"m 585 194 b 368 11 539 67 457 11 b 174 321 201 11 174 213 b 367 631 174 431 201 631 b 568 475 457 631 528 582 l 592 475 l 532 642 l 446 642 b 367 656 421 653 393 656 b 28 321 174 656 28 499 b 368 -14 28 143 174 -14 b 446 0 394 -14 422 -8 l 539 0 l 608 194 z m 319 928 b 240 849 276 928 240 892 b 319 771 240 806 276 771 b 397 849 363 771 397 806 b 319 928 397 892 363 928 z "},"é":{"ha":707,"x_min":0,"x_max":0,"o":"m 368 11 b 174 321 203 11 174 213 b 174 347 174 329 174 338 l 679 347 b 368 656 679 514 551 656 b 28 321 175 656 28 499 b 368 -14 28 143 175 -14 b 654 158 551 -14 638 119 l 629 158 b 368 11 617 128 540 11 z m 368 631 b 533 372 492 631 525 483 l 175 372 b 368 631 185 483 225 631 z m 396 957 l 322 742 l 343 742 l 506 956 z "},"ĕ":{"ha":707,"x_min":0,"x_max":0,"o":"m 368 11 b 174 321 203 11 174 213 b 174 347 174 329 174 338 l 679 347 b 368 656 679 514 551 656 b 28 321 175 656 28 499 b 368 -14 28 143 175 -14 b 654 158 551 -14 638 119 l 629 158 b 368 11 617 128 540 11 z m 368 631 b 533 372 492 631 525 483 l 175 372 b 368 631 185 483 225 631 z m 496 936 b 354 844 475 857 403 844 b 213 936 304 844 233 857 l 196 936 b 354 763 201 846 257 763 b 511 936 450 763 506 846 z "},"ě":{"ha":707,"x_min":0,"x_max":0,"o":"m 368 11 b 174 321 203 11 174 213 b 174 347 174 329 174 338 l 679 347 b 368 656 679 514 551 656 b 28 321 175 656 28 499 b 368 -14 28 143 175 -14 b 654 158 551 -14 638 119 l 629 158 b 368 11 617 128 540 11 z m 368 631 b 533 372 492 631 525 483 l 175 372 b 368 631 185 483 225 631 z m 533 953 l 353 847 l 174 953 l 164 943 l 353 746 l 543 943 z "},"ê":{"ha":707,"x_min":0,"x_max":0,"o":"m 368 11 b 174 321 203 11 174 213 b 174 347 174 329 174 338 l 679 347 b 368 656 679 514 551 656 b 28 321 175 656 28 499 b 368 -14 28 143 175 -14 b 654 158 551 -14 638 119 l 629 158 b 368 11 617 128 540 11 z m 368 631 b 533 372 492 631 525 483 l 175 372 b 368 631 185 483 225 631 z m 353 953 l 164 756 l 174 746 l 353 851 l 533 746 l 543 756 z "},"ë":{"ha":707,"x_min":0,"x_max":0,"o":"m 368 11 b 174 321 203 11 174 213 b 174 347 174 329 174 338 l 679 347 b 368 656 679 514 551 656 b 28 321 175 656 28 499 b 368 -14 28 143 175 -14 b 654 158 551 -14 638 119 l 629 158 b 368 11 617 128 540 11 z m 368 631 b 533 372 492 631 525 483 l 175 372 b 368 631 185 483 225 631 z m 221 928 b 143 849 178 928 143 892 b 221 771 143 806 178 771 b 299 849 264 771 299 806 b 221 928 299 892 264 928 z m 483 928 b 406 849 440 928 406 892 b 483 771 406 806 440 771 b 563 849 526 771 563 806 b 483 928 563 892 526 928 z "},"ė":{"ha":707,"x_min":0,"x_max":0,"o":"m 368 11 b 174 321 203 11 174 213 b 174 347 174 329 174 338 l 679 347 b 368 656 679 514 551 656 b 28 321 175 656 28 499 b 368 -14 28 143 175 -14 b 654 158 551 -14 638 119 l 629 158 b 368 11 617 128 540 11 z m 368 631 b 533 372 492 631 525 483 l 175 372 b 368 631 185 483 225 631 z m 354 928 b 275 849 311 928 275 892 b 354 771 275 806 311 771 b 432 849 397 771 432 806 b 354 928 432 892 397 928 z "},"è":{"ha":707,"x_min":0,"x_max":0,"o":"m 368 11 b 174 321 203 11 174 213 b 174 347 174 329 174 338 l 679 347 b 368 656 679 514 551 656 b 28 321 175 656 28 499 b 368 -14 28 143 175 -14 b 654 158 551 -14 638 119 l 629 158 b 368 11 617 128 540 11 z m 368 631 b 533 372 492 631 525 483 l 175 372 b 368 631 185 483 225 631 z m 331 957 l 221 956 l 382 742 l 403 742 z "},"ē":{"ha":707,"x_min":0,"x_max":0,"o":"m 368 11 b 174 321 203 11 174 213 b 174 347 174 329 174 338 l 679 347 b 368 656 679 514 551 656 b 28 321 175 656 28 499 b 368 -14 28 143 175 -14 b 654 158 551 -14 638 119 l 629 158 b 368 11 617 128 540 11 z m 368 631 b 533 372 492 631 525 483 l 175 372 b 368 631 185 483 225 631 z m 167 847 l 167 822 l 540 822 l 540 847 z "},"ğ":{"ha":731,"x_min":0,"x_max":0,"o":"m 703 656 l 703 750 b 510 617 614 750 535 693 b 354 656 464 642 411 656 b 42 353 181 656 42 519 b 172 106 42 251 93 161 b 51 -11 113 89 51 53 b 333 -147 51 -161 243 -147 b 631 -236 454 -147 631 -132 b 443 -304 631 -297 558 -333 l 431 -326 l 588 -381 b 661 -201 588 -381 661 -299 b 333 -18 661 0 454 -18 b 103 29 214 -18 103 -35 b 197 90 103 57 136 82 b 354 50 244 64 297 50 b 668 353 529 50 668 186 b 528 606 668 458 613 551 b 703 656 557 657 642 656 z m 354 75 b 183 353 206 75 183 268 b 354 631 183 438 206 631 b 526 353 504 631 526 438 b 354 75 526 268 504 75 z m 500 936 b 358 844 479 857 407 844 b 217 936 308 844 238 857 l 200 936 b 358 763 206 846 261 763 b 515 936 454 763 510 846 z "},"ĝ":{"ha":731,"x_min":0,"x_max":0,"o":"m 703 656 l 703 750 b 510 617 614 750 535 693 b 354 656 464 642 411 656 b 42 353 181 656 42 519 b 172 106 42 251 93 161 b 51 -11 113 89 51 53 b 333 -147 51 -161 243 -147 b 631 -236 454 -147 631 -132 b 443 -304 631 -297 558 -333 l 431 -326 l 588 -381 b 661 -201 588 -381 661 -299 b 333 -18 661 0 454 -18 b 103 29 214 -18 103 -35 b 197 90 103 57 136 82 b 354 50 244 64 297 50 b 668 353 529 50 668 186 b 528 606 668 458 613 551 b 703 656 557 657 642 656 z m 354 75 b 183 353 206 75 183 268 b 354 631 183 438 206 631 b 526 353 504 631 526 438 b 354 75 526 268 504 75 z m 357 953 l 168 756 l 178 746 l 357 851 l 538 746 l 547 756 z "},"ġ":{"ha":731,"x_min":0,"x_max":0,"o":"m 703 656 l 703 750 b 510 617 614 750 535 693 b 354 656 464 642 411 656 b 42 353 181 656 42 519 b 172 106 42 251 93 161 b 51 -11 113 89 51 53 b 333 -147 51 -161 243 -147 b 631 -236 454 -147 631 -132 b 443 -304 631 -297 558 -333 l 431 -326 l 588 -381 b 661 -201 588 -381 661 -299 b 333 -18 661 0 454 -18 b 103 29 214 -18 103 -35 b 197 90 103 57 136 82 b 354 50 244 64 297 50 b 668 353 529 50 668 186 b 528 606 668 458 613 551 b 703 656 557 657 642 656 z m 354 75 b 183 353 206 75 183 268 b 354 631 183 438 206 631 b 526 353 504 631 526 438 b 354 75 526 268 504 75 z m 358 928 b 279 849 315 928 279 892 b 358 771 279 806 315 771 b 436 849 401 771 436 806 b 358 928 436 892 401 928 z "},"ģ":{"ha":731,"x_min":0,"x_max":0,"o":"m 703 656 l 703 750 b 510 617 614 750 535 693 b 354 656 464 642 411 656 b 42 353 181 656 42 519 b 172 106 42 251 93 161 b 51 -11 113 89 51 53 b 333 -147 51 -161 243 -147 b 631 -236 454 -147 631 -132 b 443 -304 631 -297 558 -333 l 431 -326 l 588 -381 b 661 -201 588 -381 661 -299 b 333 -18 661 0 454 -18 b 103 29 214 -18 103 -35 b 197 90 103 57 136 82 b 354 50 244 64 297 50 b 668 353 529 50 668 186 b 528 606 668 458 613 551 b 703 656 557 657 642 656 z m 354 75 b 183 353 206 75 183 268 b 354 631 183 438 206 631 b 526 353 504 631 526 438 b 354 75 526 268 504 75 z m 357 765 b 444 853 406 765 444 804 b 357 940 444 901 404 940 b 301 915 322 940 301 915 b 399 1067 317 975 340 1018 l 383 1083 b 269 853 304 1021 269 938 b 357 765 269 804 308 765 z "},"ĥ":{"ha":851,"x_min":0,"x_max":0,"o":"m 725 25 l 725 411 b 503 656 725 603 610 656 b 282 497 376 656 313 583 l 282 972 l 42 972 l 42 947 l 140 947 l 140 25 l 42 25 l 42 0 l 381 0 l 381 25 l 282 25 l 282 372 b 475 631 283 453 329 631 b 583 449 578 631 583 526 l 583 25 l 485 25 l 485 0 l 824 0 l 824 25 z m 210 1250 l 21 1053 l 31 1043 l 210 1149 l 390 1043 l 400 1053 z "},"í":{"ha":410,"x_min":0,"x_max":0,"o":"m 283 25 l 283 642 l 42 642 l 42 617 l 140 617 l 140 25 l 42 25 l 42 0 l 382 0 l 382 25 z m 214 957 l 140 742 l 161 742 l 324 956 z "},"ĭ":{"ha":410,"x_min":0,"x_max":0,"o":"m 283 25 l 283 642 l 42 642 l 42 617 l 140 617 l 140 25 l 42 25 l 42 0 l 382 0 l 382 25 z m 343 936 b 201 844 322 857 250 844 b 60 936 151 844 81 857 l 43 936 b 201 763 49 846 104 763 b 358 936 297 763 353 846 z "},"î":{"ha":410,"x_min":0,"x_max":0,"o":"m 283 25 l 283 642 l 42 642 l 42 617 l 140 617 l 140 25 l 42 25 l 42 0 l 382 0 l 382 25 z m 200 953 l 11 756 l 21 746 l 200 851 l 381 746 l 390 756 z "},"ï":{"ha":410,"x_min":0,"x_max":0,"o":"m 283 25 l 283 642 l 42 642 l 42 617 l 140 617 l 140 25 l 42 25 l 42 0 l 382 0 l 382 25 z m 68 928 b -10 849 25 928 -10 892 b 68 771 -10 806 25 771 b 146 849 111 771 146 806 b 68 928 146 892 111 928 z m 331 928 b 253 849 288 928 253 892 b 331 771 253 806 288 771 b 410 849 374 771 410 806 b 331 928 410 892 374 928 z "},"ì":{"ha":410,"x_min":0,"x_max":0,"o":"m 283 25 l 283 642 l 42 642 l 42 617 l 140 617 l 140 25 l 42 25 l 42 0 l 382 0 l 382 25 z m 192 957 l 82 956 l 243 742 l 264 742 z "},"ī":{"ha":410,"x_min":0,"x_max":0,"o":"m 283 25 l 283 642 l 42 642 l 42 617 l 140 617 l 140 25 l 42 25 l 42 0 l 382 0 l 382 25 z m 14 847 l 14 822 l 388 822 l 388 847 z "},"ĩ":{"ha":410,"x_min":0,"x_max":0,"o":"m 283 25 l 283 642 l 42 642 l 42 617 l 140 617 l 140 25 l 42 25 l 42 0 l 382 0 l 382 25 z m 390 938 b 301 847 374 864 339 847 b 115 919 246 847 197 919 b -10 767 54 919 14 867 l 8 761 b 90 846 25 826 54 846 b 288 772 144 847 206 772 b 410 932 358 772 392 826 z "},"ı":{"ha":410,"x_min":0,"x_max":0,"o":"m 283 25 l 283 642 l 42 642 l 42 617 l 140 617 l 140 25 l 42 25 l 42 0 l 382 0 l 382 25 z "},"ĵ":{"ha":400,"x_min":0,"x_max":0,"o":"m 107 617 l 206 617 l 206 3 b 86 -319 206 -131 231 -315 b 0 -144 21 -319 -32 -272 l -22 -131 l -83 -285 b 96 -344 -83 -285 -12 -344 b 347 -24 318 -344 347 -157 l 347 642 l 107 642 z m 276 953 l 88 756 l 97 746 l 276 851 l 457 746 l 467 756 z "},"ĺ":{"ha":408,"x_min":0,"x_max":0,"o":"m 282 25 l 282 972 l 42 972 l 42 947 l 140 947 l 140 25 l 42 25 l 42 0 l 381 0 l 381 25 z m 229 1276 l 156 1061 l 176 1061 l 339 1275 z "},"ń":{"ha":853,"x_min":0,"x_max":0,"o":"m 726 25 l 726 411 b 503 656 726 603 610 656 b 283 497 376 656 313 583 l 283 642 l 42 642 l 42 617 l 140 617 l 140 25 l 42 25 l 42 0 l 382 0 l 382 25 l 283 25 l 283 372 b 476 631 283 453 329 631 b 583 449 578 631 583 526 l 583 25 l 485 25 l 485 0 l 825 0 l 825 25 z m 481 957 l 407 742 l 428 742 l 590 956 z "},"ň":{"ha":853,"x_min":0,"x_max":0,"o":"m 726 25 l 726 411 b 503 656 726 603 610 656 b 283 497 376 656 313 583 l 283 642 l 42 642 l 42 617 l 140 617 l 140 25 l 42 25 l 42 0 l 382 0 l 382 25 l 283 25 l 283 372 b 476 631 283 453 329 631 b 583 449 578 631 583 526 l 583 25 l 485 25 l 485 0 l 825 0 l 825 25 z m 614 953 l 433 847 l 254 953 l 244 943 l 433 746 l 624 943 z "},"ñ":{"ha":853,"x_min":0,"x_max":0,"o":"m 726 25 l 726 411 b 503 656 726 603 610 656 b 283 497 376 656 313 583 l 283 642 l 42 642 l 42 617 l 140 617 l 140 25 l 42 25 l 42 0 l 382 0 l 382 25 l 283 25 l 283 372 b 476 631 283 453 329 631 b 583 449 578 631 583 526 l 583 25 l 485 25 l 485 0 l 825 0 l 825 25 z m 624 938 b 535 847 607 864 572 847 b 349 919 479 847 431 919 b 224 767 288 919 247 867 l 242 761 b 324 846 258 826 288 846 b 521 772 378 847 439 772 b 643 932 592 772 625 826 z "},"ó":{"ha":736,"x_min":0,"x_max":0,"o":"m 368 656 b 28 321 175 656 28 499 b 368 -14 28 143 175 -14 b 708 321 561 -14 708 143 b 368 656 708 499 561 656 z m 368 11 b 174 321 203 11 174 213 b 368 631 174 431 203 631 b 563 321 533 631 563 431 b 368 11 563 213 533 11 z m 383 957 l 310 742 l 331 742 l 493 956 z "},"ŏ":{"ha":736,"x_min":0,"x_max":0,"o":"m 368 656 b 28 321 175 656 28 499 b 368 -14 28 143 175 -14 b 708 321 561 -14 708 143 b 368 656 708 499 561 656 z m 368 11 b 174 321 203 11 174 213 b 368 631 174 431 203 631 b 563 321 533 631 563 431 b 368 11 563 213 533 11 z m 511 936 b 369 844 490 857 418 844 b 228 936 319 844 249 857 l 211 936 b 369 763 217 846 272 763 b 526 936 465 763 521 846 z "},"ô":{"ha":736,"x_min":0,"x_max":0,"o":"m 368 656 b 28 321 175 656 28 499 b 368 -14 28 143 175 -14 b 708 321 561 -14 708 143 b 368 656 708 499 561 656 z m 368 11 b 174 321 203 11 174 213 b 368 631 174 431 203 631 b 563 321 533 631 563 431 b 368 11 563 213 533 11 z m 368 953 l 179 756 l 189 746 l 368 851 l 549 746 l 558 756 z "},"ö":{"ha":736,"x_min":0,"x_max":0,"o":"m 368 656 b 28 321 175 656 28 499 b 368 -14 28 143 175 -14 b 708 321 561 -14 708 143 b 368 656 708 499 561 656 z m 368 11 b 174 321 203 11 174 213 b 368 631 174 431 203 631 b 563 321 533 631 563 431 b 368 11 563 213 533 11 z m 236 928 b 158 849 193 928 158 892 b 236 771 158 806 193 771 b 314 849 279 771 314 806 b 236 928 314 892 279 928 z m 499 928 b 421 849 456 928 421 892 b 499 771 421 806 456 771 b 578 849 542 771 578 806 b 499 928 578 892 542 928 z "},"ō":{"ha":736,"x_min":0,"x_max":0,"o":"m 368 656 b 28 321 175 656 28 499 b 368 -14 28 143 175 -14 b 708 321 561 -14 708 143 b 368 656 708 499 561 656 z m 368 11 b 174 321 203 11 174 213 b 368 631 174 431 203 631 b 563 321 533 631 563 431 b 368 11 563 213 533 11 z m 182 847 l 182 822 l 556 822 l 556 847 z "},"õ":{"ha":736,"x_min":0,"x_max":0,"o":"m 368 656 b 28 321 175 656 28 499 b 368 -14 28 143 175 -14 b 708 321 561 -14 708 143 b 368 656 708 499 561 656 z m 368 11 b 174 321 203 11 174 213 b 368 631 174 431 203 631 b 563 321 533 631 563 431 b 368 11 563 213 533 11 z m 558 938 b 469 847 542 864 507 847 b 283 919 414 847 365 919 b 158 767 222 919 182 867 l 176 761 b 258 846 193 826 222 846 b 456 772 313 847 374 772 b 578 932 526 772 560 826 z "},"ò":{"ha":736,"x_min":0,"x_max":0,"o":"m 368 656 b 28 321 175 656 28 499 b 368 -14 28 143 175 -14 b 708 321 561 -14 708 143 b 368 656 708 499 561 656 z m 368 11 b 174 321 203 11 174 213 b 368 631 174 431 203 631 b 563 321 533 631 563 431 b 368 11 563 213 533 11 z m 325 957 l 215 956 l 376 742 l 397 742 z "},"ő":{"ha":736,"x_min":0,"x_max":0,"o":"m 368 656 b 28 321 175 656 28 499 b 368 -14 28 143 175 -14 b 708 321 561 -14 708 143 b 368 656 708 499 561 656 z m 368 11 b 174 321 203 11 174 213 b 368 631 174 431 203 631 b 563 321 533 631 563 431 b 368 11 563 213 533 11 z m 221 742 l 242 742 l 403 956 l 293 957 z m 503 957 l 431 742 l 451 742 l 613 956 z "},"ǿ":{"ha":736,"x_min":0,"x_max":0,"o":"m 561 597 l 628 700 l 607 714 l 540 610 b 368 656 490 639 432 656 b 28 321 175 656 28 499 b 175 46 28 210 85 107 l 108 -58 l 129 -71 l 196 32 b 368 -14 246 4 304 -14 b 708 321 561 -14 708 143 b 561 597 708 432 651 535 z m 174 321 b 368 631 174 431 203 631 b 506 557 432 631 476 600 l 217 110 b 174 321 182 176 174 263 z m 368 11 b 231 86 304 11 260 42 l 519 533 b 563 321 554 467 563 381 b 368 11 563 213 533 11 z m 450 957 l 376 742 l 397 742 l 560 956 z "},"ŕ":{"ha":653,"x_min":0,"x_max":0,"o":"m 589 642 l 528 642 b 458 656 503 651 483 656 b 267 438 342 656 286 553 l 267 642 l 42 642 l 42 618 l 140 618 l 140 25 l 42 25 l 42 0 l 381 0 l 381 25 l 282 25 l 282 336 b 449 632 282 442 326 632 b 614 475 539 632 574 582 l 639 475 z m 315 957 l 242 742 l 263 742 l 425 956 z "},"ř":{"ha":653,"x_min":0,"x_max":0,"o":"m 589 642 l 528 642 b 458 656 503 651 483 656 b 267 438 342 656 286 553 l 267 642 l 42 642 l 42 618 l 140 618 l 140 25 l 42 25 l 42 0 l 381 0 l 381 25 l 282 25 l 282 336 b 449 632 282 442 326 632 b 614 475 539 632 574 582 l 639 475 z m 521 953 l 340 847 l 161 953 l 151 943 l 340 746 l 531 943 z "},"ś":{"ha":551,"x_min":0,"x_max":0,"o":"m 285 414 b 157 533 190 450 157 479 b 274 632 157 561 178 632 b 469 475 364 632 429 582 l 493 475 l 435 642 l 347 642 b 268 656 324 650 301 656 b 65 486 154 656 65 586 b 246 283 65 403 97 349 b 418 131 357 233 418 194 b 269 11 418 68 371 11 b 51 194 179 11 97 67 l 28 194 l 94 0 l 186 0 b 275 -14 211 -6 249 -14 b 524 172 422 -14 524 64 b 285 414 524 267 476 342 z m 299 957 l 225 742 l 246 742 l 408 956 z "},"š":{"ha":551,"x_min":0,"x_max":0,"o":"m 285 414 b 157 533 190 450 157 479 b 274 632 157 561 178 632 b 469 475 364 632 429 582 l 493 475 l 435 642 l 347 642 b 268 656 324 650 301 656 b 65 486 154 656 65 586 b 246 283 65 403 97 349 b 418 131 357 233 418 194 b 269 11 418 68 371 11 b 51 194 179 11 97 67 l 28 194 l 94 0 l 186 0 b 275 -14 211 -6 249 -14 b 524 172 422 -14 524 64 b 285 414 524 267 476 342 z m 456 953 l 275 847 l 96 953 l 86 943 l 275 746 l 465 943 z "},"ŝ":{"ha":551,"x_min":0,"x_max":0,"o":"m 285 414 b 157 533 190 450 157 479 b 274 632 157 561 178 632 b 469 475 364 632 429 582 l 493 475 l 435 642 l 347 642 b 268 656 324 650 301 656 b 65 486 154 656 65 586 b 246 283 65 403 97 349 b 418 131 357 233 418 194 b 269 11 418 68 371 11 b 51 194 179 11 97 67 l 28 194 l 94 0 l 186 0 b 275 -14 211 -6 249 -14 b 524 172 422 -14 524 64 b 285 414 524 267 476 342 z m 275 953 l 86 756 l 96 746 l 275 851 l 456 746 l 465 756 z "},"ú":{"ha":824,"x_min":0,"x_max":0,"o":"m 697 25 l 697 642 l 457 642 l 457 618 l 556 618 l 556 271 b 361 11 554 189 508 11 b 254 193 260 11 254 117 l 254 642 l 14 642 l 14 618 l 111 618 l 111 231 b 335 -14 111 39 228 -14 b 556 146 461 -14 525 60 l 556 0 l 796 0 l 796 25 z m 417 957 l 343 742 l 364 742 l 526 956 z "},"ŭ":{"ha":824,"x_min":0,"x_max":0,"o":"m 697 25 l 697 642 l 457 642 l 457 618 l 556 618 l 556 271 b 361 11 554 189 508 11 b 254 193 260 11 254 117 l 254 642 l 14 642 l 14 618 l 111 618 l 111 231 b 335 -14 111 39 228 -14 b 556 146 461 -14 525 60 l 556 0 l 796 0 l 796 25 z m 546 936 b 404 844 525 857 453 844 b 263 936 354 844 283 857 l 246 936 b 404 763 251 846 307 763 b 561 936 500 763 556 846 z "},"û":{"ha":824,"x_min":0,"x_max":0,"o":"m 697 25 l 697 642 l 457 642 l 457 618 l 556 618 l 556 271 b 361 11 554 189 508 11 b 254 193 260 11 254 117 l 254 642 l 14 642 l 14 618 l 111 618 l 111 231 b 335 -14 111 39 228 -14 b 556 146 461 -14 525 60 l 556 0 l 796 0 l 796 25 z m 403 953 l 214 756 l 224 746 l 403 851 l 583 746 l 593 756 z "},"ü":{"ha":824,"x_min":0,"x_max":0,"o":"m 697 25 l 697 642 l 457 642 l 457 618 l 556 618 l 556 271 b 361 11 554 189 508 11 b 254 193 260 11 254 117 l 254 642 l 14 642 l 14 618 l 111 618 l 111 231 b 335 -14 111 39 228 -14 b 556 146 461 -14 525 60 l 556 0 l 796 0 l 796 25 z m 271 928 b 193 849 228 928 193 892 b 271 771 193 806 228 771 b 349 849 314 771 349 806 b 271 928 349 892 314 928 z m 533 928 b 456 849 490 928 456 892 b 533 771 456 806 490 771 b 613 849 576 771 613 806 b 533 928 613 892 576 928 z "},"ū":{"ha":824,"x_min":0,"x_max":0,"o":"m 697 25 l 697 642 l 457 642 l 457 618 l 556 618 l 556 271 b 361 11 554 189 508 11 b 254 193 260 11 254 117 l 254 642 l 14 642 l 14 618 l 111 618 l 111 231 b 335 -14 111 39 228 -14 b 556 146 461 -14 525 60 l 556 0 l 796 0 l 796 25 z m 217 847 l 217 822 l 590 822 l 590 847 z "},"ů":{"ha":824,"x_min":0,"x_max":0,"o":"m 697 25 l 697 642 l 457 642 l 457 618 l 556 618 l 556 271 b 361 11 554 189 508 11 b 254 193 260 11 254 117 l 254 642 l 14 642 l 14 618 l 111 618 l 111 231 b 335 -14 111 39 228 -14 b 556 146 461 -14 525 60 l 556 0 l 796 0 l 796 25 z m 403 954 b 297 849 344 954 297 907 b 403 744 297 792 344 744 b 508 849 461 744 508 792 b 403 954 508 907 461 954 z m 403 767 b 319 849 357 767 319 804 b 403 932 319 894 357 932 b 486 849 449 932 486 894 b 403 767 486 804 449 767 z "},"ũ":{"ha":824,"x_min":0,"x_max":0,"o":"m 697 25 l 697 642 l 457 642 l 457 618 l 556 618 l 556 271 b 361 11 554 189 508 11 b 254 193 260 11 254 117 l 254 642 l 14 642 l 14 618 l 111 618 l 111 231 b 335 -14 111 39 228 -14 b 556 146 461 -14 525 60 l 556 0 l 796 0 l 796 25 z m 593 938 b 504 847 576 864 542 847 b 318 919 449 847 400 919 b 193 767 257 919 217 867 l 211 761 b 293 846 228 826 257 846 b 490 772 347 847 408 772 b 613 932 561 772 594 826 z "},"ẃ":{"ha":1025,"x_min":0,"x_max":0,"o":"m 814 642 l 814 618 l 903 618 l 765 167 l 607 618 l 688 618 l 688 642 l 399 642 l 399 618 l 461 618 l 510 485 l 413 167 l 254 618 l 343 618 l 343 642 l 28 642 l 28 618 l 108 618 l 338 -14 l 385 -14 l 524 444 l 690 -14 l 738 -14 l 929 618 l 1011 618 l 1011 642 z m 550 957 l 476 742 l 497 742 l 660 956 z "},"ŵ":{"ha":1025,"x_min":0,"x_max":0,"o":"m 814 642 l 814 618 l 903 618 l 765 167 l 607 618 l 688 618 l 688 642 l 399 642 l 399 618 l 461 618 l 510 485 l 413 167 l 254 618 l 343 618 l 343 642 l 28 642 l 28 618 l 108 618 l 338 -14 l 385 -14 l 524 444 l 690 -14 l 738 -14 l 929 618 l 1011 618 l 1011 642 z m 519 953 l 331 756 l 340 746 l 519 851 l 700 746 l 710 756 z "},"ẅ":{"ha":1025,"x_min":0,"x_max":0,"o":"m 814 642 l 814 618 l 903 618 l 765 167 l 607 618 l 688 618 l 688 642 l 399 642 l 399 618 l 461 618 l 510 485 l 413 167 l 254 618 l 343 618 l 343 642 l 28 642 l 28 618 l 108 618 l 338 -14 l 385 -14 l 524 444 l 690 -14 l 738 -14 l 929 618 l 1011 618 l 1011 642 z m 388 928 b 310 849 344 928 310 892 b 388 771 310 806 344 771 b 465 849 431 771 465 806 b 388 928 465 892 431 928 z m 650 928 b 572 849 607 928 572 892 b 650 771 572 806 607 771 b 729 849 693 771 729 806 b 650 928 729 892 693 928 z "},"ẁ":{"ha":1025,"x_min":0,"x_max":0,"o":"m 814 642 l 814 618 l 903 618 l 765 167 l 607 618 l 688 618 l 688 642 l 399 642 l 399 618 l 461 618 l 510 485 l 413 167 l 254 618 l 343 618 l 343 642 l 28 642 l 28 618 l 108 618 l 338 -14 l 385 -14 l 524 444 l 690 -14 l 738 -14 l 929 618 l 1011 618 l 1011 642 z m 503 957 l 393 956 l 554 742 l 575 742 z "},"ý":{"ha":732,"x_min":0,"x_max":0,"o":"m 521 642 l 521 618 l 610 618 l 439 167 l 267 618 l 356 618 l 356 642 l 33 642 l 33 618 l 114 618 l 361 -14 l 371 -14 b 365 -28 369 -18 365 -28 b 157 -293 310 -171 256 -293 b 111 -97 85 -293 35 -206 l 86 -68 l -14 -203 b 139 -319 11 -261 60 -319 b 397 -14 283 -319 339 -167 l 638 618 l 718 618 l 718 642 z m 458 957 l 385 742 l 406 742 l 568 956 z "},"ỳ":{"ha":732,"x_min":0,"x_max":0,"o":"m 521 642 l 521 618 l 610 618 l 439 167 l 267 618 l 356 618 l 356 642 l 33 642 l 33 618 l 114 618 l 361 -14 l 371 -14 b 365 -28 369 -18 365 -28 b 157 -293 310 -171 256 -293 b 111 -97 85 -293 35 -206 l 86 -68 l -14 -203 b 139 -319 11 -261 60 -319 b 397 -14 283 -319 339 -167 l 638 618 l 718 618 l 718 642 z m 400 957 l 290 956 l 451 742 l 472 742 z "},"ŷ":{"ha":732,"x_min":0,"x_max":0,"o":"m 521 642 l 521 618 l 610 618 l 439 167 l 267 618 l 356 618 l 356 642 l 33 642 l 33 618 l 114 618 l 361 -14 l 371 -14 b 365 -28 369 -18 365 -28 b 157 -293 310 -171 256 -293 b 111 -97 85 -293 35 -206 l 86 -68 l -14 -203 b 139 -319 11 -261 60 -319 b 397 -14 283 -319 339 -167 l 638 618 l 718 618 l 718 642 z m 426 953 l 238 756 l 247 746 l 426 851 l 607 746 l 617 756 z "},"ÿ":{"ha":732,"x_min":0,"x_max":0,"o":"m 521 642 l 521 618 l 610 618 l 439 167 l 267 618 l 356 618 l 356 642 l 33 642 l 33 618 l 114 618 l 361 -14 l 371 -14 b 365 -28 369 -18 365 -28 b 157 -293 310 -171 256 -293 b 111 -97 85 -293 35 -206 l 86 -68 l -14 -203 b 139 -319 11 -261 60 -319 b 397 -14 283 -319 339 -167 l 638 618 l 718 618 l 718 642 z m 294 928 b 217 849 251 928 217 892 b 294 771 217 806 251 771 b 372 849 338 771 372 806 b 294 928 372 892 338 928 z m 557 928 b 479 849 514 928 479 892 b 557 771 479 806 514 771 b 636 849 600 771 636 806 b 557 928 636 892 600 928 z "},"ž":{"ha":579,"x_min":0,"x_max":0,"o":"m 528 194 b 331 25 488 79 431 25 l 196 25 l 532 642 l 101 642 l 46 475 l 69 475 b 274 618 111 590 172 618 l 364 618 l 28 0 l 496 0 l 551 194 z m 469 953 l 289 847 l 110 953 l 100 943 l 289 746 l 479 943 z "},"ż":{"ha":579,"x_min":0,"x_max":0,"o":"m 528 194 b 331 25 488 79 431 25 l 196 25 l 532 642 l 101 642 l 46 475 l 69 475 b 274 618 111 590 172 618 l 364 618 l 28 0 l 496 0 l 551 194 z m 292 928 b 213 849 249 928 213 892 b 292 771 213 806 249 771 b 369 849 335 771 369 806 b 292 928 369 892 335 928 z "},"ź":{"ha":579,"x_min":0,"x_max":0,"o":"m 528 194 b 331 25 488 79 431 25 l 196 25 l 532 642 l 101 642 l 46 475 l 69 475 b 274 618 111 590 172 618 l 364 618 l 28 0 l 496 0 l 551 194 z m 338 957 l 264 742 l 285 742 l 447 956 z "},"Ķ":{"ha":1028,"x_min":0,"x_max":0,"o":"m 906 24 l 542 632 l 806 947 l 922 947 l 922 972 l 658 972 l 658 947 l 778 947 l 310 389 l 310 947 l 426 947 l 426 972 l 42 972 l 42 947 l 158 947 l 158 24 l 42 24 l 42 0 l 426 0 l 426 24 l 310 24 l 310 354 l 440 510 l 731 24 l 606 24 l 606 0 l 1014 0 l 1014 24 z m 529 -94 b 442 -182 481 -94 442 -133 b 529 -269 442 -231 482 -269 b 583 -244 564 -269 583 -244 b 488 -396 569 -304 546 -347 l 501 -412 b 615 -182 582 -350 615 -267 b 529 -94 615 -133 576 -94 z "},"Ģ":{"ha":1039,"x_min":0,"x_max":0,"o":"m 540 467 l 540 442 l 754 442 l 754 203 b 500 10 754 156 735 10 b 188 486 246 10 188 325 b 500 961 188 647 246 961 b 801 718 635 961 742 878 l 826 718 l 736 972 l 618 972 b 500 986 581 981 542 986 b 28 486 211 986 28 751 b 500 -14 28 221 211 -14 b 817 65 668 -14 735 65 b 872 0 861 65 865 25 l 894 0 l 894 442 l 1011 442 l 1011 467 z m 519 -94 b 432 -182 471 -94 432 -133 b 519 -269 432 -231 472 -269 b 574 -244 554 -269 574 -244 b 478 -396 560 -304 536 -347 l 492 -412 b 606 -182 572 -350 606 -267 b 519 -94 606 -133 567 -94 z "},"Ļ":{"ha":831,"x_min":0,"x_max":0,"o":"m 779 299 b 461 24 713 121 622 24 l 310 24 l 310 947 l 426 947 l 426 972 l 42 972 l 42 947 l 158 947 l 158 24 l 42 24 l 42 0 l 714 0 l 803 299 z m 429 -94 b 342 -182 381 -94 342 -133 b 429 -269 342 -231 382 -269 b 483 -244 464 -269 483 -244 b 388 -396 469 -304 446 -347 l 401 -412 b 515 -182 482 -350 515 -267 b 429 -94 515 -133 476 -94 z "},"Ņ":{"ha":954,"x_min":0,"x_max":0,"o":"m 654 972 l 654 947 l 771 947 l 771 232 l 294 972 l 42 972 l 42 947 l 158 947 l 158 25 l 42 25 l 42 0 l 299 0 l 299 25 l 183 25 l 182 876 l 763 -14 l 796 -14 l 796 947 l 913 947 l 913 972 z m 478 -94 b 390 -182 429 -94 390 -133 b 478 -269 390 -231 431 -269 b 532 -244 513 -269 532 -244 b 436 -396 518 -304 494 -347 l 450 -412 b 564 -182 531 -350 564 -267 b 478 -94 564 -133 525 -94 z "},"Ŗ":{"ha":993,"x_min":0,"x_max":0,"o":"m 972 43 b 889 11 965 38 942 11 b 803 226 810 11 803 117 b 556 490 803 399 714 463 b 781 725 688 518 781 592 b 419 972 781 901 621 972 l 42 972 l 42 947 l 158 947 l 158 25 l 42 25 l 42 0 l 425 0 l 425 25 l 310 25 l 310 478 l 414 478 b 643 261 632 478 643 378 b 863 -14 643 76 707 -14 b 979 35 936 -14 974 28 z m 310 503 l 310 947 l 421 947 b 622 725 590 947 622 832 b 421 503 622 618 590 503 z m 511 -94 b 424 -182 463 -94 424 -133 b 511 -269 424 -231 464 -269 b 565 -244 546 -269 565 -244 b 469 -396 551 -304 528 -347 l 483 -412 b 597 -182 564 -350 597 -267 b 511 -94 597 -133 558 -94 z "},"Ș":{"ha":786,"x_min":0,"x_max":0,"o":"m 408 -94 b 321 -182 360 -94 321 -133 b 408 -269 321 -231 361 -269 b 463 -244 443 -269 463 -244 b 367 -396 449 -304 425 -347 l 381 -412 b 494 -182 461 -350 494 -267 b 408 -94 494 -133 456 -94 z m 400 599 b 183 803 231 663 183 726 b 383 961 183 865 240 961 b 676 718 518 961 617 879 l 700 718 l 611 972 l 492 972 b 375 986 456 982 417 986 b 72 747 206 986 72 890 b 342 443 72 607 156 524 b 626 201 508 369 626 338 b 378 11 626 65 529 11 b 53 299 243 11 121 106 l 28 299 l 133 0 l 261 0 b 388 -14 297 -8 346 -14 b 758 264 607 -14 758 100 b 400 599 758 394 688 489 z "},"Ţ":{"ha":951,"x_min":0,"x_max":0,"o":"m 849 972 l 104 972 l 14 718 l 39 718 b 365 947 106 897 204 947 l 400 947 l 400 25 l 283 25 l 283 0 l 668 0 l 668 25 l 551 25 l 551 947 l 586 947 b 914 718 747 947 847 897 l 938 718 z m 475 -94 b 388 -182 426 -94 388 -133 b 475 -269 388 -231 428 -269 b 529 -244 510 -269 529 -244 b 433 -396 515 -304 492 -347 l 447 -412 b 561 -182 528 -350 561 -267 b 475 -94 561 -133 522 -94 z "},"Ĳ":{"ha":1175,"x_min":0,"x_max":0,"o":"m 426 947 l 426 972 l 42 972 l 42 947 l 158 947 l 158 24 l 42 24 l 42 0 l 426 0 l 426 24 l 310 24 l 310 947 z m 749 972 l 749 947 l 865 947 l 865 332 b 701 11 865 126 854 11 b 582 286 603 11 533 108 l 560 299 l 476 61 b 711 -14 476 61 594 -14 b 1017 306 900 -14 1017 71 l 1017 947 l 1133 947 l 1133 972 z "},"ķ":{"ha":840,"x_min":0,"x_max":0,"o":"m 732 25 l 413 399 l 660 617 l 740 617 l 740 642 l 535 642 l 535 617 l 624 617 l 317 346 l 282 346 l 282 972 l 42 972 l 42 947 l 140 947 l 140 25 l 42 25 l 42 0 l 381 0 l 381 25 l 282 25 l 282 321 l 317 321 l 569 25 l 489 25 l 489 0 l 813 0 l 813 25 z m 428 -94 b 340 -182 379 -94 340 -133 b 428 -269 340 -231 381 -269 b 482 -244 463 -269 482 -244 b 386 -396 468 -304 444 -347 l 400 -412 b 514 -182 481 -350 514 -267 b 428 -94 514 -133 475 -94 z "},"ļ":{"ha":408,"x_min":0,"x_max":0,"o":"m 282 25 l 282 972 l 42 972 l 42 947 l 140 947 l 140 25 l 42 25 l 42 0 l 381 0 l 381 25 z m 211 -94 b 124 -182 163 -94 124 -133 b 211 -269 124 -231 164 -269 b 265 -244 246 -269 265 -244 b 169 -396 251 -304 228 -347 l 183 -412 b 297 -182 264 -350 297 -267 b 211 -94 297 -133 258 -94 z "},"ņ":{"ha":853,"x_min":0,"x_max":0,"o":"m 726 25 l 726 411 b 503 656 726 603 610 656 b 283 497 376 656 313 583 l 283 642 l 42 642 l 42 617 l 140 617 l 140 25 l 42 25 l 42 0 l 382 0 l 382 25 l 283 25 l 283 372 b 476 631 283 453 329 631 b 583 449 578 631 583 526 l 583 25 l 485 25 l 485 0 l 825 0 l 825 25 z m 435 -94 b 347 -182 386 -94 347 -133 b 435 -269 347 -231 388 -269 b 489 -244 469 -269 489 -244 b 393 -396 475 -304 451 -347 l 407 -412 b 521 -182 488 -350 521 -267 b 435 -94 521 -133 482 -94 z "},"ŗ":{"ha":653,"x_min":0,"x_max":0,"o":"m 589 642 l 528 642 b 458 656 503 651 483 656 b 267 438 342 656 286 553 l 267 642 l 42 642 l 42 618 l 140 618 l 140 25 l 42 25 l 42 0 l 381 0 l 381 25 l 282 25 l 282 336 b 449 632 282 442 326 632 b 614 475 539 632 574 582 l 639 475 z m 342 -94 b 254 -182 293 -94 254 -133 b 342 -269 254 -231 294 -269 b 396 -244 376 -269 396 -244 b 300 -396 382 -304 358 -347 l 314 -412 b 428 -182 394 -350 428 -267 b 342 -94 428 -133 389 -94 z "},"ș":{"ha":551,"x_min":0,"x_max":0,"o":"m 285 414 b 157 533 190 450 157 479 b 274 632 157 561 178 632 b 469 475 364 632 429 582 l 493 475 l 435 642 l 347 642 b 268 656 324 650 301 656 b 65 486 154 656 65 586 b 246 283 65 403 97 349 b 418 131 357 233 418 194 b 269 11 418 68 371 11 b 51 194 179 11 97 67 l 28 194 l 94 0 l 186 0 b 275 -14 211 -6 249 -14 b 524 172 422 -14 524 64 b 285 414 524 267 476 342 z m 276 -94 b 189 -182 228 -94 189 -133 b 276 -269 189 -231 229 -269 b 331 -244 311 -269 331 -244 b 235 -396 317 -304 293 -347 l 249 -412 b 363 -182 329 -350 363 -267 b 276 -94 363 -133 324 -94 z "},"ţ":{"ha":514,"x_min":0,"x_max":0,"o":"m 467 194 b 338 11 461 140 429 11 b 254 264 239 11 254 154 l 254 618 l 456 618 l 456 642 l 254 642 l 254 813 l 113 813 l 113 642 l 14 642 l 14 618 l 113 618 l 113 229 b 314 -14 113 47 208 -14 b 486 194 453 -14 478 142 z m 251 -94 b 164 -182 203 -94 164 -133 b 251 -269 164 -231 204 -269 b 306 -244 286 -269 306 -244 b 210 -396 292 -304 268 -347 l 224 -412 b 338 -182 304 -350 338 -267 b 251 -94 338 -133 299 -94 z "},"ù":{"ha":824,"x_min":0,"x_max":0,"o":"m 697 25 l 697 642 l 457 642 l 457 618 l 556 618 l 556 271 b 361 11 554 189 508 11 b 254 193 260 11 254 117 l 254 642 l 14 642 l 14 618 l 111 618 l 111 231 b 335 -14 111 39 228 -14 b 556 146 461 -14 525 60 l 556 0 l 796 0 l 796 25 z m 357 957 l 247 956 l 408 742 l 429 742 z "},"ű":{"ha":824,"x_min":0,"x_max":0,"o":"m 697 25 l 697 642 l 457 642 l 457 618 l 556 618 l 556 271 b 361 11 554 189 508 11 b 254 193 260 11 254 117 l 254 642 l 14 642 l 14 618 l 111 618 l 111 231 b 335 -14 111 39 228 -14 b 556 146 461 -14 525 60 l 556 0 l 796 0 l 796 25 z m 231 742 l 251 742 l 413 956 l 303 957 z m 513 957 l 440 742 l 461 742 l 622 956 z "},"Ŀ":{"ha":831,"x_min":0,"x_max":0,"o":"m 574 497 b 488 410 526 497 488 458 b 574 322 488 361 526 322 b 661 410 622 322 661 361 b 574 497 661 458 622 497 z m 779 299 b 461 24 713 121 622 24 l 310 24 l 310 947 l 426 947 l 426 972 l 42 972 l 42 947 l 158 947 l 158 24 l 42 24 l 42 0 l 714 0 l 803 299 z "},"ŀ":{"ha":603,"x_min":0,"x_max":0,"o":"m 501 493 b 415 406 454 493 415 454 b 501 318 415 357 454 318 b 589 406 550 318 589 357 b 501 493 589 454 550 493 z m 282 25 l 282 972 l 42 972 l 42 947 l 140 947 l 140 25 l 42 25 l 42 0 l 381 0 l 381 25 z "},"ĳ":{"ha":740,"x_min":0,"x_max":0,"o":"m 283 25 l 283 642 l 42 642 l 42 617 l 140 617 l 140 25 l 42 25 l 42 0 l 382 0 l 382 25 z m 211 749 b 294 831 258 749 294 785 b 211 914 294 878 258 914 b 129 831 165 914 129 878 b 211 749 129 785 165 749 z m 447 617 l 546 617 l 546 3 b 426 -319 546 -131 571 -315 b 340 -144 361 -319 308 -272 l 318 -131 l 257 -285 b 436 -344 257 -285 328 -344 b 688 -24 658 -344 688 -157 l 688 642 l 447 642 z m 615 749 b 699 831 661 749 699 785 b 615 914 699 878 661 914 b 532 831 569 914 532 878 b 615 749 532 785 569 749 z "},"Ð":{"ha":1006,"x_min":0,"x_max":0,"o":"m 421 972 l 42 972 l 42 947 l 158 947 l 158 499 l 42 499 l 42 474 l 158 474 l 158 25 l 42 25 l 42 0 l 421 0 b 978 486 850 0 978 258 b 421 972 978 715 850 972 z m 421 25 l 310 25 l 310 474 l 569 474 l 569 499 l 310 499 l 310 947 l 421 947 b 818 486 782 947 818 629 b 421 25 818 343 782 25 z "},"ſ":{"ha":485,"x_min":0,"x_max":0,"o":"m 383 986 b 140 667 161 986 140 800 l 140 642 l 42 642 l 42 617 l 140 617 l 140 25 l 42 25 l 42 0 l 381 0 l 381 25 l 282 25 l 281 642 b 383 961 267 775 246 957 b 488 786 450 961 519 915 l 513 776 l 568 933 b 383 986 568 933 474 986 z "},"ĸ":{"ha":840,"x_min":0,"x_max":0,"o":"m 733 25 l 414 399 l 661 617 l 742 617 l 742 642 l 535 642 l 535 617 l 625 617 l 317 346 l 283 346 l 283 642 l 42 642 l 42 617 l 140 617 l 140 25 l 42 25 l 42 0 l 382 0 l 382 25 l 283 25 l 283 321 l 317 321 l 571 25 l 490 25 l 490 0 l 814 0 l 814 25 z "},"ľ":{"ha":528,"x_min":0,"x_max":0,"o":"m 282 25 l 282 972 l 42 972 l 42 947 l 140 947 l 140 25 l 42 25 l 42 0 l 381 0 l 381 25 z m 482 986 b 394 900 433 986 394 947 b 482 813 394 851 435 813 b 538 838 517 813 538 838 b 440 686 522 778 499 735 l 456 668 b 569 900 535 732 569 815 b 482 986 569 947 531 986 z "},"ŉ":{"ha":1067,"x_min":0,"x_max":0,"o":"m 940 25 l 940 411 b 717 656 940 603 824 656 b 497 497 590 656 526 583 l 497 642 l 256 642 l 256 617 l 354 617 l 354 25 l 256 25 l 256 0 l 596 0 l 596 25 l 497 25 l 497 372 b 690 631 497 453 543 631 b 797 449 792 631 797 526 l 797 25 l 699 25 l 699 0 l 1039 0 l 1039 25 z m 115 929 b 28 842 67 929 28 890 b 115 754 28 793 68 754 b 169 779 150 754 169 779 b 74 628 156 719 132 676 l 88 611 b 201 842 168 674 201 757 b 115 929 201 890 163 929 z "},"ť":{"ha":554,"x_min":0,"x_max":0,"o":"m 467 194 b 338 11 461 140 429 11 b 254 264 239 11 254 154 l 254 618 l 456 618 l 456 642 l 254 642 l 254 813 l 113 813 l 113 642 l 14 642 l 14 618 l 113 618 l 113 229 b 314 -14 113 47 208 -14 b 486 194 453 -14 478 142 z m 494 986 b 407 900 446 986 407 947 b 494 813 407 851 447 813 b 550 838 529 813 550 838 b 453 686 535 778 511 735 l 468 668 b 582 900 547 732 582 815 b 494 986 582 947 543 986 z "},"ď":{"ha":936,"x_min":0,"x_max":0,"o":"m 721 25 l 721 972 l 481 972 l 481 947 l 579 947 l 579 522 b 368 656 546 590 479 656 b 28 321 175 656 28 499 b 368 -14 28 143 175 -14 b 579 119 479 -14 546 53 l 579 0 l 819 0 l 819 25 z m 579 218 b 368 11 579 138 515 11 b 174 321 203 11 174 213 b 368 631 174 431 203 631 b 579 425 515 631 579 504 z m 890 993 b 803 907 842 993 803 954 b 890 819 803 858 843 819 b 946 844 925 819 946 844 b 849 693 931 785 907 742 l 864 675 b 978 907 943 739 978 822 b 890 993 978 954 939 993 z "},"°":{"ha":294,"x_min":0,"x_max":0,"o":"m 147 996 b 42 890 89 996 42 949 b 147 786 42 833 89 786 b 253 890 206 786 253 833 b 147 996 253 949 206 996 z m 147 808 b 64 890 101 808 64 846 b 147 974 64 936 101 974 b 231 890 193 974 231 936 b 147 808 231 846 193 808 z "}," ":{"ha":319,"x_min":0,"x_max":0,"o":""},"A":{"ha":904,"x_min":0,"x_max":0,"o":"m 792 24 l 471 986 l 424 986 l 113 24 l 14 24 l 14 0 l 256 0 l 256 24 l 139 24 l 239 332 l 529 332 l 632 24 l 515 24 l 515 0 l 890 0 l 890 24 z m 246 356 l 381 772 l 521 356 z "}}}
